<?xml version="1.0" encoding="utf-8"?>
<!-- Generator: Adobe Illustrator 24.0.2, SVG Export Plug-In . SVG Version: 6.00 Build 0)  -->
<svg version="1.1" id="Шар_1" xmlns="http://www.w3.org/2000/svg" xmlns:xlink="http://www.w3.org/1999/xlink" x="0px" y="0px"
	 viewBox="0 0 18 14" style="enable-background:new 0 0 18 14;" xml:space="preserve">
<style type="text/css">
	.st0{fill:#E3851D;}
</style>
<g>
	<g>
		<path class="st0" d="M15.4,1.1L6.9,9.5L3.5,6C2.8,5.4,1.8,5.4,1.2,6c-0.6,0.6-0.6,1.6,0,2.3c0,0,0,0,0,0l4.6,4.6
			c0.6,0.6,1.6,0.6,2.3,0c0,0,0,0,0,0l9.6-9.6c0.6-0.6,0.6-1.6,0-2.3c0,0,0,0,0,0C17,0.5,16,0.4,15.4,1.1
			C15.4,1.1,15.4,1.1,15.4,1.1z"/>
	</g>
</g>
</svg>
