<svg xmlns="http://www.w3.org/2000/svg" width="22" height="22" viewBox="0 0 22 22"><g><g><g><g><path fill="#fff" d="M11.175 15.727c.323-.008.633-.15.849-.391l7.445-8.273a1.183 1.183 0 0 0-1.756-1.581l-6.61 7.344-2.31-2.326a1.174 1.174 0 0 0-.839-.348c-.314 0-.61.122-.833.343a1.184 1.184 0 0 0-.005 1.671l3.191 3.212a1.188 1.188 0 0 0 .868.349zm7.846 2.794A10.566 10.566 0 0 0 22.136 11h-2.363c0 4.561-3.712 8.273-8.273 8.273-4.562 0-8.273-3.712-8.273-8.273 0-4.562 3.711-8.273 8.273-8.273a8.2 8.2 0 0 1 3.66.851l1.576-1.838C15.147.84 13.336.364 11.5.364a10.567 10.567 0 0 0-7.521 3.115 10.567 10.567 0 0 0-3.115 7.52c0 2.842 1.106 5.513 3.115 7.522a10.567 10.567 0 0 0 7.52 3.115c2.842 0 5.513-1.106 7.522-3.115z"/></g></g></g></g></svg>