<?xml version="1.0" encoding="utf-8"?><svg xmlns="http://www.w3.org/2000/svg" xmlns:xlink="http://www.w3.org/1999/xlink"><symbol viewBox="0 0 17 20" id="XING" xmlns="http://www.w3.org/2000/svg"><path d="M16.856.621L10.51 11.838v.016l4.033 7.385c.093.154.099.299.016.434-.072.123-.202.186-.388.186h-2.854c-.331 0-.6-.182-.807-.543-2.7-4.954-4.054-7.442-4.064-7.463L12.822.543c.197-.362.45-.543.76-.543h2.902c.176 0 .3.062.373.187.083.124.083.269-.001.434zM3.312 13.917H.442a.408.408 0 01-.372-.202.373.373 0 010-.435l3.04-5.367v-.015L1.172 4.546c-.083-.176-.087-.326-.015-.45.083-.114.217-.17.404-.17h2.854c.32 0 .59.175.806.527a373.222 373.222 0 011.956 3.445l-3.088 5.46c-.196.372-.455.56-.776.56z"/></symbol><symbol viewBox="0 0 45 48" id="advice" xmlns="http://www.w3.org/2000/svg"><path d="M41.94 1H18.956c-1.18 0-2.155.975-2.155 2.155v6.464h1.437V3.155c0-.41.308-.719.718-.719H41.94c.41 0 .718.308.718.719v14.364c0 .41-.308.719-.718.719H30.858l-4.514 4.514 1.026 1.026 4.104-4.104H41.94c1.18 0 2.155-.975 2.155-2.155V3.155A2.169 2.169 0 0041.94 1z"/><path d="M41.94 1H18.956c-1.18 0-2.155.975-2.155 2.155v6.464h1.437V3.155c0-.41.308-.719.718-.719H41.94c.41 0 .718.308.718.719v14.364c0 .41-.308.719-.718.719H30.858l-4.514 4.514 1.026 1.026 4.104-4.104H41.94c1.18 0 2.155-.975 2.155-2.155V3.155A2.169 2.169 0 0041.94 1z"/><path d="M26.857 11.055V9.62h1.436v1.436z"/><path d="M26.857 11.055V9.62h1.436v1.436zM29.73 11.055V9.62h1.436v1.436z"/><path d="M29.73 11.055V9.62h1.436v1.436zM32.603 11.055V9.62h1.436v1.436z"/><path d="M32.603 11.055V9.62h1.436v1.436zM20.239 34.603l-2.72-1.385-2.718 1.385-2.104-2.103.872-1.283 3.95.667 3.95-.667.873 1.283zm-5.592-6.002c1.385.41 2.821.41 2.873.41.05 0 1.487 0 2.873-.41v1.334l-2.873.461-2.873-.461zm-2.873-7.542V18.7l2.206-1.077 7.182 2.873 2.103-1.077v1.641c-.615 4.258-2.308 5.746-2.513 5.9-1.283.616-3.232.616-3.232.616s-1.95 0-3.233-.616c-.205-.205-1.898-1.642-2.513-5.9zm5.746-8.567c3.847 0 5.592 1.641 5.745 5.335l-2.154 1.078-7.183-2.873-2.052 1.026c.308-3.13 2.104-4.566 5.644-4.566zm6.259 19.546l-1.59-2.411-.36.051v-1.795c.667-.616 2.257-2.514 2.873-6.721v-2.976c0-4.77-2.411-7.182-7.182-7.182-4.772 0-7.183 2.411-7.183 7.182v2.976c.616 4.207 2.206 6.054 2.873 6.72v1.796l-.359-.051-1.59 2.411c-1.232.718-2.514 1.18-3.694 1.642C4.18 34.962 1 36.194 1 41.94v5.027h1.436V41.94c0-4.772 2.258-5.644 5.644-6.926 1.077-.41 2.308-.872 3.54-1.54l2.873 2.874 3.027-1.488 3.026 1.488 2.873-2.873c1.232.667 2.463 1.128 3.54 1.539 3.386 1.282 5.644 2.154 5.644 6.926v5.027h1.436V41.94c0-5.746-3.18-6.978-6.567-8.26-1.23-.462-2.462-.924-3.693-1.642z"/><path d="M20.239 34.603l-2.72-1.385-2.718 1.385-2.104-2.103.872-1.283 3.95.667 3.95-.667.873 1.283zm-5.592-6.002c1.385.41 2.821.41 2.873.41.05 0 1.487 0 2.873-.41v1.334l-2.873.461-2.873-.461zm-2.873-7.542V18.7l2.206-1.077 7.182 2.873 2.103-1.077v1.641c-.615 4.258-2.308 5.746-2.513 5.9-1.283.616-3.232.616-3.232.616s-1.95 0-3.233-.616c-.205-.205-1.898-1.642-2.513-5.9zm5.746-8.567c3.847 0 5.592 1.641 5.745 5.335l-2.154 1.078-7.183-2.873-2.052 1.026c.308-3.13 2.104-4.566 5.644-4.566zm6.259 19.546l-1.59-2.411-.36.051v-1.795c.667-.616 2.257-2.514 2.873-6.721v-2.976c0-4.77-2.411-7.182-7.182-7.182-4.772 0-7.183 2.411-7.183 7.182v2.976c.616 4.207 2.206 6.054 2.873 6.72v1.796l-.359-.051-1.59 2.411c-1.232.718-2.514 1.18-3.694 1.642C4.18 34.962 1 36.194 1 41.94v5.027h1.436V41.94c0-4.772 2.258-5.644 5.644-6.926 1.077-.41 2.308-.872 3.54-1.54l2.873 2.874 3.027-1.488 3.026 1.488 2.873-2.873c1.232.667 2.463 1.128 3.54 1.539 3.386 1.282 5.644 2.154 5.644 6.926v5.027h1.436V41.94c0-5.746-3.18-6.978-6.567-8.26-1.23-.462-2.462-.924-3.693-1.642z"/><path d="M16.801 41.221v-1.436h1.437v1.436z"/><path d="M16.801 41.221v-1.436h1.437v1.436zM16.801 38.348v-1.436h1.437v1.436z"/><path d="M16.801 38.348v-1.436h1.437v1.436z"/><g><path d="M6.746 46.967v-4.31h1.436v4.31z"/><path d="M6.746 46.967v-4.31h1.436v4.31z"/></g><g><path d="M26.857 46.967v-4.31h1.436v4.31z"/><path d="M26.857 46.967v-4.31h1.436v4.31z"/></g></symbol><symbol viewBox="0 0 50 44" id="box" xmlns="http://www.w3.org/2000/svg"><path d="M24.681 12.256l-12.276 7.011 12.217 7.09 12.277-7.001zM10.62 36.435l12.247 7.11V29.452L10.62 22.334zm15.816 7.109l12.247-6.991v-14.11l-12.247 6.99zm.622-33.151V4.989L24.652.65l-2.406 4.34v5.422l2.445-1.39zM7.257 35.912l-4.693 2.712L0 42.874l4.97-.09 4.713-2.72-2.435-1.41zm39.483 2.712l-4.694-2.712.01 2.741-2.436 1.41 4.713 2.722 4.97.089z"/></symbol><symbol viewBox="0 0 344.96 344.96" id="check" xmlns="http://www.w3.org/2000/svg"><g data-name="Слой 2"><path d="M321.85 86.24l-40-23.11-23.1-40H212.5L172.48 0l-40 23.11H86.24l-23.11 40-40 23.1v46.21L0 172.48l23.11 40v46.21l40 23.11 23.11 40h46.21l40 23.1 40-23.11h46.21l23.11-40 40-23.11V212.5l23.11-40-23.11-40V86.24zM156.91 243.07a16.79 16.79 0 01-23.34 0l-50.45-50.44a16.19 16.19 0 010-22.89l13.35-13.35a16.19 16.19 0 0122.89 0l25.87 25.87 80.34-80.35a16.19 16.19 0 0122.89 0l13.35 13.35a16.19 16.19 0 010 22.89z" data-name="Capa 1"/></g></symbol><symbol id="chevron-down" viewBox="0 0 21.4 32" xml:space="preserve" xmlns="http://www.w3.org/2000/svg"><style/><path d="M17.9 11.9c-.2-.3-.6-.4-.9-.5-.3 0-.7.1-1 .3l-5.5 5.5-5.1-5.1c-.5-.5-1.3-.5-1.9 0-.5.5-.5 1.4 0 1.9l6.1 6.1c.2.3.6.4.9.4.3 0 .7-.1 1-.4l6.3-6.3c.3-.2.4-.6.5-.9 0-.4-.1-.7-.4-1z"/></symbol><symbol viewBox="0 0 8 14" id="chevron-right" xmlns="http://www.w3.org/2000/svg"><path d="M6.03 6.91L.568 1.447C.224 1.104.224.554.568.245c.343-.31.893-.344 1.202 0l6.081 6.08c.344.344.344.894 0 1.203L1.495 13.85a.828.828 0 01-.618.24.828.828 0 01-.619-.24c-.343-.344-.343-.894 0-1.203z"/></symbol><symbol viewBox="0 0 22 22" id="close" xmlns="http://www.w3.org/2000/svg"><path d="M1.39 20.964L20.963 1.388m.001 19.576L1.389 1.388"/></symbol><symbol id="contact-location" viewBox="0 0 21.4 32" xml:space="preserve" xmlns="http://www.w3.org/2000/svg"><style/><path id="hPfad_134_2_" d="M10.7 0C5.1 0 .5 4.5.5 10.1c0 2 .6 3.9 1.6 5.5l5.6 8.7c-1.1.2-2.1.6-3 1.1-1 .5-1.6 1.5-1.7 2.5 0 1.3 1.1 2.3 2.4 3 1.6.7 3.4 1.1 5.2 1 1.8 0 3.6-.3 5.2-1 1.4-.7 2.4-1.6 2.4-3 0-.6-.2-1.1-.6-1.6-.2-.3-.7-.4-1-.1-.3.2-.4.7-.1 1 .2.2.3.4.3.7 0 .5-.5 1.1-1.6 1.6-1.4.6-3 .9-4.6.9-1.6 0-3.1-.3-4.6-.9-1-.4-1.5-1-1.5-1.5 0-.4.3-.9 1-1.3.9-.5 2-.9 3-1.1L10 28c.2.3.7.4 1 .2.1-.1.2-.1.2-.2l8-12.4c3-4.7 1.7-11-3-14C14.6.6 12.7 0 10.7 0zm0 1.5c4.8 0 8.7 3.9 8.7 8.7 0 1.7-.5 3.3-1.4 4.7l-7.3 11.4-7.3-11.4C.8 10.9 2 5.5 6 2.9c1.4-1 3-1.5 4.7-1.4zm0 4.3c-2.4 0-4.4 2-4.4 4.4 0 2.4 2 4.4 4.4 4.4 2.4 0 4.4-2 4.4-4.4 0-2.4-2-4.4-4.4-4.4zm0 1.5c1.6 0 2.9 1.3 2.9 2.9 0 1.6-1.3 2.9-2.9 2.9s-2.9-1.3-2.9-2.9c0-1.6 1.3-2.9 2.9-2.9zm4.4 17.4c-.4 0-.7.3-.7.7 0 .4.3.7.7.7.4 0 .7-.3.7-.7 0-.3-.3-.7-.7-.7z"/></symbol><symbol viewBox="0 0 44 45" id="contact-person" xmlns="http://www.w3.org/2000/svg"><path d="M21.874 22.183c.851 0 1.768-.327 2.62-.851l1.637 2.161-2.358 8.843-.524-5.568 1.31-2.358h-5.371l1.31 2.358-.524 5.568-2.358-8.712 1.572-2.227c.917.459 1.834.786 2.686.786zm-4.52-5.633v-.262l-.197-.13c-.393-.328-1.244-1.114-1.179-1.704 0-.196.066-.262.131-.262.197 0 .459-.13.59-.262.13-.13.196-.393.196-.59 0-.196-.065-.392-.065-.589v-.524c-.066-1.637.13-2.489 1.441-2.554h.393l.065-.393c0-.066.328-1.376 2.686-1.376.655 0 2.49.197 3.34.524.066 0 .328.131.787.131.13 0 .262 0 .458-.065l-.196.196-.72.72 1.047.066c.066 0 1.18.131 1.114 2.03l-.197 1.704c0 .196.066.327.131.458a.708.708 0 00.459.197h.262s.065.065.065.262c0 .655-.917 1.506-1.179 1.703l-.327.393v.262c0 2.62-2.751 4.716-4.585 4.716-1.966 0-4.455-2.162-4.52-4.65zm16.9 11.004v5.11H24.69l2.358-8.712 4.782 1.113c1.179.328 2.161 1.31 2.423 2.49zm-13.297 5.11l.524-5.503h.786zm.393-6.485h1.113m-12.445 6.485c.327-6.354 1.244-7.337 2.489-7.599l4.323-.982 2.292 8.58zm2.292-8.516c-1.637.393-2.882 1.703-3.144 3.34l-.065 6.224h26.2v-6.223c-.327-1.638-1.572-2.948-3.144-3.275l-5.109-1.18-1.637-2.226c1.179-.983 2.03-2.424 2.096-3.996.458-.393 1.44-1.31 1.375-2.358 0-.851-.458-1.179-.917-1.244l.131-1.31c.066-1.703-.59-2.49-1.244-2.817.524-.72.393-1.244.327-1.375l-.196-.59-.524.393c-.852.59-1.31.328-1.376.328-1.179-.524-3.602-.655-3.733-.655-2.424 0-3.276 1.179-3.538 1.768-2.161.328-2.096 2.555-2.03 3.537v.917c-.328.066-.786.328-.852 1.18 0 1.047.983 2.03 1.376 2.357.13 1.572.982 2.948 2.096 3.93l-1.638 2.293z"/><path d="M21.874 22.183c.851 0 1.768-.327 2.62-.851l1.637 2.161-2.358 8.843-.524-5.568 1.31-2.358h-5.371l1.31 2.358-.524 5.568-2.358-8.712 1.572-2.227c.917.459 1.834.786 2.686.786zm-4.52-5.633v-.262l-.197-.13c-.393-.328-1.244-1.114-1.179-1.704 0-.196.066-.262.131-.262.197 0 .459-.13.59-.262.13-.13.196-.393.196-.59 0-.196-.065-.392-.065-.589v-.524c-.066-1.637.13-2.489 1.441-2.554h.393l.065-.393c0-.066.328-1.376 2.686-1.376.655 0 2.49.197 3.34.524.066 0 .328.131.787.131.13 0 .262 0 .458-.065l-.196.196-.72.72 1.047.066c.066 0 1.18.131 1.114 2.03l-.197 1.704c0 .196.066.327.131.458a.708.708 0 00.459.197h.262s.065.065.065.262c0 .655-.917 1.506-1.179 1.703l-.327.393v.262c0 2.62-2.751 4.716-4.585 4.716-1.966 0-4.455-2.162-4.52-4.65zm16.9 11.004v5.11H24.69l2.358-8.712 4.782 1.113c1.179.328 2.161 1.31 2.423 2.49zm-13.297 5.11l.524-5.503h.786zm.393-6.485h1.113m-12.445 6.485c.327-6.354 1.244-7.337 2.489-7.599l4.323-.982 2.292 8.58zm2.292-8.516c-1.637.393-2.882 1.703-3.144 3.34l-.065 6.224h26.2v-6.223c-.327-1.638-1.572-2.948-3.144-3.275l-5.109-1.18-1.637-2.226c1.179-.983 2.03-2.424 2.096-3.996.458-.393 1.44-1.31 1.375-2.358 0-.851-.458-1.179-.917-1.244l.131-1.31c.066-1.703-.59-2.49-1.244-2.817.524-.72.393-1.244.327-1.375l-.196-.59-.524.393c-.852.59-1.31.328-1.376.328-1.179-.524-3.602-.655-3.733-.655-2.424 0-3.276 1.179-3.538 1.768-2.161.328-2.096 2.555-2.03 3.537v.917c-.328.066-.786.328-.852 1.18 0 1.047.983 2.03 1.376 2.357.13 1.572.982 2.948 2.096 3.93l-1.638 2.293z"/><path d="M9.1 6.529C16.372.633 26.853.502 34.254 6.136l-2.75 2.423L38.313 10l-.458-7.009-2.882 2.49C27.244-.611 16.109-.48 8.446 5.808.389 12.424-1.707 24.148 3.599 33.122l.851-.524c-5.043-8.58-3.078-19.716 4.65-26.07z"/><path d="M9.1 6.529C16.372.633 26.853.502 34.254 6.136l-2.75 2.423L38.313 10l-.458-7.009-2.882 2.49C27.244-.611 16.109-.48 8.446 5.808.389 12.424-1.707 24.148 3.599 33.122l.851-.524c-5.043-8.58-3.078-19.716 4.65-26.07zM39.886 11.834l-.851.459c5.043 8.515 3.078 19.716-4.65 26.004-7.271 5.96-17.752 6.091-25.153.393l2.75-2.424-6.811-1.31.458 6.943 2.882-2.489a21.35 21.35 0 0013.035 4.454c4.782 0 9.563-1.572 13.493-4.781 8.057-6.616 10.153-18.34 4.847-27.249z"/><path d="M39.886 11.834l-.851.459c5.043 8.515 3.078 19.716-4.65 26.004-7.271 5.96-17.752 6.091-25.153.393l2.75-2.424-6.811-1.31.458 6.943 2.882-2.489a21.35 21.35 0 0013.035 4.454c4.782 0 9.563-1.572 13.493-4.781 8.057-6.616 10.153-18.34 4.847-27.249z"/></symbol><symbol viewBox="0 0 10 22" id="fb" xmlns="http://www.w3.org/2000/svg"><path d="M9.568 10.72H6.566v10.705H2.118V10.72H0V6.94h2.118V4.491C2.118 2.738 2.949 0 6.606 0L9.9.013v3.672H7.51c-.39 0-.944.194-.944 1.03V6.94h3.391z"/></symbol><symbol viewBox="0 0 47 47" id="hands" xmlns="http://www.w3.org/2000/svg"><path d="M42.287 30.545c-.343 1.668-1.324 3.14-2.648 4.218l-5.101 3.973h-6.916l.785-5.297c.147-.834.54-1.57 1.177-2.109l6.916-6.033a.813.813 0 011.03 0c.294.246.343.687.147 1.03L36.45 28.29c-.49.736-1.03 1.423-1.717 2.06l-1.913 1.766c-.392.392-.441 1.03-.049 1.422.393.392 1.03.442 1.423.05l1.912-1.767a14.009 14.009 0 002.06-2.452l1.227-1.962c.637-1.03.539-2.354-.197-3.237l3.335-5.051c.344-.54 1.03-.638 1.57-.344.392.245.588.736.49 1.226zm-14.812 13.93v-3.728h6.376v3.727zm17.706-27.417c-1.471-.932-3.335-.49-4.316.932l-3.433 5.15a3.095 3.095 0 00-2.306.637L28.26 29.76a5.645 5.645 0 00-1.815 3.335l-.932 6.327v6.032c0 .54.442 1.03 1.03 1.03h8.387c.54 0 1.03-.441 1.03-1.03v-5.248l5.003-3.923c1.717-1.325 2.894-3.237 3.384-5.346l2.305-10.594c.196-1.275-.343-2.6-1.471-3.286zM12.86 44.474v-3.727h6.376v3.727zm-5.788-9.76c-1.324-1.03-2.305-2.55-2.648-4.218L2.119 19.951c-.099-.49.098-.932.49-1.226a1.12 1.12 0 011.57.344l3.335 5.051a2.804 2.804 0 00-.197 3.237l1.227 1.962c.588.932 1.275 1.717 2.06 2.452l1.912 1.766c.393.392 1.03.343 1.423-.049.392-.392.343-1.03-.05-1.422L11.978 30.3a10.086 10.086 0 01-1.717-2.06l-1.226-1.962c-.196-.343-.147-.784.147-1.03a.813.813 0 011.03 0l6.916 6.033c.637.54 1.03 1.324 1.177 2.109l.833 5.297h-6.964zm13.194-1.618c-.197-1.276-.834-2.502-1.815-3.335l-6.916-5.984a2.804 2.804 0 00-2.305-.638l-3.433-5.15c-.932-1.422-2.845-1.814-4.316-.931-1.128.686-1.668 2.06-1.422 3.335l2.305 10.594c.441 2.109 1.667 4.021 3.384 5.346l5.003 3.923v5.248c0 .54.441 1.03 1.03 1.03h8.386c.54 0 1.03-.441 1.03-1.03v-6.18zm3.089-10.104c-5.787 0-10.495-4.708-10.495-10.496 0-5.787 4.708-10.495 10.495-10.495 5.788 0 10.496 4.708 10.496 10.495 0 5.788-4.708 10.496-10.496 10.496zm12.507-10.496A12.496 12.496 0 0023.355-.01 12.496 12.496 0 0010.85 12.496c0 6.916 5.591 12.556 12.506 12.556 6.916 0 12.507-5.64 12.507-12.556z"/><path d="M23.846 17.205c-1.275 0-2.354-.834-2.747-2.011h2.894a.422.422 0 00.392-.392v-1.227a.422.422 0 00-.392-.392h-3.04V11.81h3.04a.422.422 0 00.392-.393v-1.226a.422.422 0 00-.392-.392h-2.894c.393-1.128 1.423-2.011 2.698-2.011.736 0 1.471.294 2.01.834.246.245.491.588.638.883.098.196.295.245.49.196l1.178-.344c.245-.049.343-.294.245-.54A5.197 5.197 0 0027.28 7.2a4.825 4.825 0 00-3.433-1.422c-2.403 0-4.365 1.717-4.807 4.022h-1.275a.422.422 0 00-.392.392v1.226c0 .197.196.393.392.393h1.177v1.373h-1.177a.422.422 0 00-.392.392v1.227c0 .196.196.392.392.392h1.275c.393 2.256 2.404 4.022 4.807 4.022 2.01 0 3.776-1.226 4.512-3.09.098-.196 0-.49-.245-.54l-1.177-.343a.466.466 0 00-.49.196 2.814 2.814 0 01-2.6 1.766z"/></symbol><symbol viewBox="0 0 18 17" id="in" xmlns="http://www.w3.org/2000/svg"><path d="M17.909 17.117h-3.84V10.94c0-1.553-.554-2.613-1.945-2.613-1.06 0-1.692.718-1.97 1.406-.101.248-.126.59-.126.936v6.45H6.19s.049-10.466 0-11.548h3.838v1.635c.511-.787 1.422-1.906 3.46-1.906 2.524 0 4.42 1.65 4.42 5.198zM2.146 3.994H2.12C.833 3.994 0 3.104 0 1.998 0 .863.86 0 2.17 0c1.315 0 2.124.863 2.147 1.998 0 1.106-.832 1.996-2.171 1.996zm1.92 13.123H.225V5.57h3.84z"/></symbol><symbol viewBox="0 0 20 20" id="inst" xmlns="http://www.w3.org/2000/svg"><path d="M15.355 3.025a1.294 1.294 0 11-1.297 1.294c0-.717.578-1.294 1.297-1.294zm-5.52 1.837a4.977 4.977 0 014.975 4.973 4.981 4.981 0 01-4.975 4.978 4.981 4.981 0 01-4.976-4.978 4.977 4.977 0 014.976-4.973zm3.813 14.809a6.03 6.03 0 006.024-6.021V6.025A6.032 6.032 0 0013.648 0H6.022C2.705 0 .002 2.703.002 6.025v7.625c0 3.32 2.703 6.02 6.02 6.02z"/></symbol><symbol viewBox="0 0 50 44" id="international" xmlns="http://www.w3.org/2000/svg"><path d="M4.688 34.04a4.688 4.688 0 013.64 1.741l3.022-1.714a8.56 8.56 0 00-.595 2.133l-1.661.942a4.68 4.68 0 01.281 1.585 4.687 4.687 0 11-4.688-4.688zm36.875 1.885a4.688 4.688 0 013.75-1.886 4.687 4.687 0 11-4.468 3.275l-2.234-1.312a8.094 8.094 0 00-.753-2.255zm-16.868-6.47c-.843 0-1.526.684-1.526 1.526 0 .444.195.832.518 1.118.025.03.386.286.224.79l-1.258 6.897 2.042 1.053 2.085-1.04-1.236-6.91c-.164-.61.215-.79.215-.79.293-.283.461-.7.461-1.118 0-.842-.682-1.526-1.525-1.526zM18.87 14.26c.337-.09.72.206.717.555 0 .275.033.286.162.358.13.072.424.128.782.128h6.25c1.747 0 3.125 1.501 3.125 3.32V23.7c-.044 1.438-.747 2.616-1.758 3.452.014 1.253.437 1.908 1.172 2.475.747.578 1.844 1.01 2.994 1.495 1.15.486 2.375 1.033 3.32 2.05.944 1.019 1.562 2.483 1.562 4.56v.39l-.326.128c-8.936 5.16-16.34 4.624-24.347 0l-.327-.128v-.39c-.001-2.127.611-3.604 1.563-4.657.951-1.053 2.189-1.651 3.353-2.148 1.166-.499 2.269-.933 3.028-1.496.64-.476 1.024-.993 1.138-1.889-.97-.775-1.661-2.037-1.788-3.842v-3.028a2.25 2.25 0 01-1.044-1.886v-3.973a.585.585 0 01.424-.552zm26.444-3.137a4.687 4.687 0 11-3.693 7.572L31.363 24.51c.046-.248.095-.497.104-.762v-1.093l9.411-5.337a4.72 4.72 0 01-.253-1.508 4.687 4.687 0 014.688-4.687zm-40.626 0a4.687 4.687 0 014.688 4.687c-.002.375-.048.75-.14 1.114l8.692 5.108v1.722l.003.055.006.043-9.327-5.48a4.688 4.688 0 01-3.921 2.126 4.687 4.687 0 110-9.375zm24.479-5.728a4.686 4.686 0 01-3.907 4.62v3.723h-1.562v-3.73a4.687 4.687 0 01-3.906-4.613 4.687 4.687 0 119.375 0z"/></symbol><symbol viewBox="0 0 319 66" id="logo" xmlns="http://www.w3.org/2000/svg"><path d="M243.587 4.672h2.201l1.692 5.821h.033l1.743-5.821h2.168l1.761 5.821h.033l1.728-5.821h2.114l-2.809 8.124h-2.063L250.34 7.11h-.033l-1.827 5.687h-2.066zm16.579 3.09c.096-.311.24-.59.431-.838.195-.249.437-.45.728-.602.293-.153.647-.228 1.05-.228.405 0 .756.075 1.052.228.29.153.533.353.728.602.191.248.335.527.431.838.093.309.144.623.144.938 0 .317-.051.635-.144.949a2.59 2.59 0 01-.431.844 2.331 2.331 0 01-.728.611c-.296.16-.647.237-1.051.237-.404 0-.758-.078-1.051-.237a2.332 2.332 0 01-.728-.61 2.59 2.59 0 01-.431-.845 3.153 3.153 0 010-1.887zm-1.86 2.702a4.13 4.13 0 002.345 2.249 4.672 4.672 0 001.725.323c.608 0 1.186-.11 1.725-.323a4.237 4.237 0 001.407-.89c.393-.377.707-.83.938-1.36.233-.533.35-1.12.35-1.763 0-.641-.117-1.228-.35-1.752a4.142 4.142 0 00-.938-1.345 4.182 4.182 0 00-1.407-.865 4.918 4.918 0 00-1.725-.303 4.91 4.91 0 00-1.725.303 4.182 4.182 0 00-1.408.865c-.395.374-.706.82-.937 1.345a4.267 4.267 0 00-.35 1.752c0 .644.116 1.23.35 1.764zm10.383-5.792h1.946v1.353h.036a2.97 2.97 0 01.947-1.15c.407-.293.88-.44 1.422-.44.078 0 .165.003.252.01.092.005.17.017.24.041V6.35a2.607 2.607 0 00-.348-.07 2.257 2.257 0 00-.282-.017c-.46 0-.832.087-1.117.254a2.083 2.083 0 00-.979 1.339 2.813 2.813 0 00-.087.59v4.351h-2.03zM275.106 0h2.03v8.092h.052l3.081-3.42h2.606l-3.522 3.674 3.74 4.45h-2.689l-3.216-4.162h-.051v4.162h-2.03zm9.497 4.672h2.03v8.124h-2.03zm-.288-2.758c0-.33.12-.611.363-.857.242-.242.55-.362.922-.362.371 0 .686.114.94.347.255.23.38.521.38.872 0 .35-.125.64-.38.871-.254.23-.569.347-.94.347s-.68-.122-.922-.365a1.167 1.167 0 01-.363-.853zm4.636 2.758h1.932v1.305h.032c.183-.407.495-.766.94-1.078.447-.308.974-.464 1.582-.464.53 0 .985.093 1.363.279.38.185.688.43.931.736.243.306.42.656.533 1.052.114.395.17.8.17 1.215v5.08h-2.03V8.294a5.96 5.96 0 00-.05-.745 2.046 2.046 0 00-.222-.701 1.464 1.464 0 00-.467-.518c-.198-.135-.459-.204-.785-.204s-.61.066-.847.195a1.826 1.826 0 00-.584.5 2.174 2.174 0 00-.345.704 2.73 2.73 0 00-.12.802v4.468h-2.033zm13.56 1.422c.371 0 .704.07 1 .204.29.135.542.317.752.557.21.233.371.509.482.826.114.315.17.644.17.995 0 .335-.056.662-.17.97-.11.308-.272.584-.482.818a2.37 2.37 0 01-.76.566c-.3.14-.636.21-1.01.21-.36 0-.686-.073-.973-.22a2.232 2.232 0 01-.728-.58 2.71 2.71 0 01-.455-.821 2.789 2.789 0 01-.162-.943c0-.36.054-.698.162-1.013.108-.314.257-.586.455-.82.198-.228.44-.41.728-.545.287-.135.62-.204.991-.204zm2.405-1.422V5.89h-.036a2.683 2.683 0 00-1.183-1.1 3.653 3.653 0 00-1.608-.356c-.611 0-1.162.111-1.65.339a3.78 3.78 0 00-1.255.913 4.039 4.039 0 00-.794 1.354 4.898 4.898 0 00-.278 1.659c0 .578.093 1.123.284 1.635.192.512.461.961.806 1.344.344.384.764.69 1.26.914a3.932 3.932 0 001.66.338 3.63 3.63 0 001.53-.314 2.88 2.88 0 001.129-.917h.033v.596c0 .408-.045.782-.126 1.12a2.311 2.311 0 01-.425.884 1.986 1.986 0 01-.797.587c-.332.14-.74.212-1.228.212a4.015 4.015 0 01-1.503-.296 4.213 4.213 0 01-1.338-.854l-1.168 1.573c.26.215.554.407.88.575.326.17.668.311 1.024.425a7.162 7.162 0 002.123.338c.791 0 1.474-.114 2.049-.338a3.843 3.843 0 001.431-.955c.378-.414.656-.914.839-1.507a6.85 6.85 0 00.27-1.991V4.672zm-60.179 16.54h1.929v1.302h.036c.18-.407.494-.766.94-1.075.443-.308.973-.464 1.581-.464.53 0 .985.093 1.363.278.38.186.688.432.931.737.243.306.42.653.533 1.048.114.396.168.803.168 1.22v5.078h-2.03v-4.504a6.63 6.63 0 00-.049-.746 2.113 2.113 0 00-.221-.7 1.501 1.501 0 00-.464-.515c-.198-.135-.462-.204-.788-.204-.33 0-.61.063-.847.195a1.817 1.817 0 00-.584.497 2.24 2.24 0 00-.348.704 2.76 2.76 0 00-.117.805v4.468h-2.033zm11.123 3.248a1.997 1.997 0 01.703-1.413c.422-.368.937-.55 1.548-.55.327 0 .611.053.854.161.242.108.443.252.602.431.159.183.272.39.344.626.075.237.111.488.111.746zm6.192.914c0-.733-.098-1.374-.293-1.92a3.856 3.856 0 00-.824-1.371 3.385 3.385 0 00-1.242-.83 4.301 4.301 0 00-1.564-.278c-.61 0-1.18.102-1.704.311-.524.21-.979.504-1.362.88a4.042 4.042 0 00-.905 1.372 4.694 4.694 0 00-.329 1.788c0 .665.11 1.258.33 1.782.218.527.523.97.913 1.33.39.362.847.64 1.38.838.53.198 1.111.297 1.743.297 1.525 0 2.686-.542 3.486-1.626l-1.354-1.084a2.4 2.4 0 01-.862.772c-.35.186-.779.279-1.288.279a2.37 2.37 0 01-.844-.153 2.552 2.552 0 01-.728-.413 2.077 2.077 0 01-.518-.626 2.057 2.057 0 01-.228-.806h6.178c.012-.09.015-.18.015-.27v-.272zm3.912-.356l-2.93-3.806h2.441l1.758 2.521 1.812-2.521h2.336l-2.91 3.806 3.317 4.318h-2.473l-2.115-2.962-2.132 2.962h-2.405zm6.45-2.183v-1.623h1.423v-2.354h1.997v2.354h2.03v1.623h-2.03v3.776c0 .362.063.659.195.898.129.237.42.354.871.354.135 0 .282-.012.44-.042.16-.027.3-.069.423-.126l.069 1.59c-.183.07-.396.12-.644.162a4.584 4.584 0 01-.71.057c-.542 0-.982-.075-1.32-.228a1.945 1.945 0 01-.803-.626 2.283 2.283 0 01-.408-.913 5.205 5.205 0 01-.11-1.108v-3.794zm11.29-6.295h2.034v12.796h-2.034zm5.942 7.92a1.997 1.997 0 01.704-1.413c.422-.368.937-.55 1.548-.55.326 0 .61.053.853.161.243.108.444.252.602.431.156.183.273.39.348.626a2.5 2.5 0 01.11.746zm6.196.914c0-.733-.099-1.374-.297-1.92a3.85 3.85 0 00-.82-1.371 3.397 3.397 0 00-1.246-.83 4.31 4.31 0 00-1.566-.278 4.54 4.54 0 00-1.698.311 4.02 4.02 0 00-1.363.88 4.093 4.093 0 00-.907 1.372c-.222.537-.33 1.132-.33 1.788 0 .665.108 1.258.33 1.782.221.527.524.97.913 1.33.39.362.85.64 1.38.838a4.95 4.95 0 001.744.297c1.524 0 2.686-.542 3.488-1.626l-1.356-1.084a2.372 2.372 0 01-.863.772c-.35.186-.778.279-1.284.279-.297 0-.578-.051-.848-.153a2.593 2.593 0 01-.728-.413 2.01 2.01 0 01-.746-1.431h6.179c.012-.09.018-.18.018-.27v-.273zm.677-4.162h2.216l2.135 5.923h.033l2.15-5.923h2.147l-3.231 8.124h-2.165zm11.359 3.248a1.986 1.986 0 01.703-1.413c.42-.368.938-.55 1.549-.55.326 0 .61.053.853.161.243.108.443.252.602.431.156.183.273.39.344.626.075.237.111.488.111.746zm6.193.914c0-.733-.1-1.374-.294-1.92a3.856 3.856 0 00-.823-1.371 3.41 3.41 0 00-1.243-.83 4.306 4.306 0 00-1.566-.278c-.608 0-1.177.102-1.701.311-.524.21-.98.504-1.363.88a4.093 4.093 0 00-.907 1.372 4.694 4.694 0 00-.327 1.788c0 .665.108 1.258.327 1.782.221.527.527.97.916 1.33.39.362.847.64 1.38.838.53.198 1.112.297 1.743.297 1.522 0 2.687-.542 3.486-1.626l-1.353-1.084a2.38 2.38 0 01-.866.772c-.347.186-.775.279-1.285.279a2.37 2.37 0 01-.844-.153 2.553 2.553 0 01-.728-.413 2.076 2.076 0 01-.518-.626 2.008 2.008 0 01-.227-.806h6.178c.009-.09.015-.18.015-.27v-.272zm2.033-8.834h2.03v12.796h-2.03zM.997 23.005H8.05v28.208H.997zM0 13.428c0-1.135.422-2.123 1.264-2.964C2.105 9.619 3.17 9.2 4.465 9.2s2.381.398 3.261 1.204c.884.802 1.324 1.811 1.324 3.024 0 1.216-.44 2.225-1.324 3.028-.88.803-1.967 1.204-3.26 1.204-1.295 0-2.36-.42-3.202-1.264C.422 15.555 0 14.566 0 13.428zm49.886 8.757c1.842 0 3.42.323 4.732.967 1.311.65 2.39 1.5 3.23 2.558a10.349 10.349 0 011.852 3.644 15.31 15.31 0 01.587 4.232v17.627h-7.05v-15.63c0-.823-.06-1.686-.177-2.587a7.07 7.07 0 00-.763-2.438 5.044 5.044 0 00-1.617-1.79c-.686-.474-1.597-.708-2.732-.708-1.099 0-2.036.234-2.82.707a6.115 6.115 0 00-1.938 1.818 7.814 7.814 0 00-1.117 2.5c-.234.92-.354 1.83-.354 2.732v15.396h-7.05v-17.04c0-1.764-.421-3.223-1.263-4.379-.844-1.156-2.168-1.734-3.968-1.734-1.057 0-1.98.225-2.761.674a5.803 5.803 0 00-1.91 1.737 7.982 7.982 0 00-1.118 2.438 10.45 10.45 0 00-.38 2.791v15.513h-7.053V23.005h6.7v4.525h.12a8.312 8.312 0 011.26-1.997 9.92 9.92 0 011.88-1.704 8.95 8.95 0 012.498-1.204c.94-.293 1.977-.44 3.115-.44 2.195 0 4.013.488 5.462 1.467a9.763 9.763 0 013.351 3.878c.94-1.722 2.193-3.042 3.762-3.965 1.566-.919 3.408-1.38 5.522-1.38zM90.608 36.99a11.3 11.3 0 01-.5 3.292 9.054 9.054 0 01-1.497 2.938 7.861 7.861 0 01-2.528 2.117c-1.018.548-2.213.82-3.582.82-1.293 0-2.45-.263-3.467-.79a8.471 8.471 0 01-2.615-2.087 9.003 9.003 0 01-1.647-2.911 9.924 9.924 0 01-.557-3.259c0-1.096.186-2.195.557-3.29a8.975 8.975 0 011.647-2.939 8.825 8.825 0 012.615-2.114c1.018-.55 2.174-.823 3.467-.823 1.369 0 2.564.263 3.582.79a7.595 7.595 0 012.528 2.088 9.133 9.133 0 011.497 2.91c.332 1.076.5 2.163.5 3.259zM67.4 23.006v42.31h7.05V47.45h.12c.898 1.41 2.183 2.528 3.845 3.351 1.665.82 3.497 1.234 5.495 1.234 2.153 0 4.085-.404 5.789-1.207 1.704-.8 3.153-1.88 4.348-3.231 1.195-1.35 2.117-2.938 2.761-4.759.647-1.82.97-3.77.97-5.848 0-2.076-.332-4.013-1-5.816-.668-1.8-1.605-3.37-2.818-4.702a13.224 13.224 0 00-4.351-3.144c-1.683-.764-3.525-1.144-5.522-1.144-1.294 0-2.46.147-3.498.44a13.405 13.405 0 00-2.788 1.117c-.824.45-1.522.958-2.088 1.527a10.256 10.256 0 00-1.38 1.674h-.177v-3.938zm42.129 11.284c.155-1.998.97-3.633 2.437-4.909 1.47-1.27 3.265-1.907 5.379-1.907 1.135 0 2.123.185 2.968.557.841.37 1.536.871 2.084 1.5.548.626.95 1.35 1.204 2.174.254.82.383 1.683.383 2.584zm21.505 3.174c0-2.549-.342-4.77-1.027-6.67-.686-1.901-1.636-3.488-2.851-4.76a11.823 11.823 0 00-4.319-2.882c-1.665-.644-3.474-.967-5.432-.967-2.117 0-4.085.362-5.906 1.087-1.824.725-3.402 1.743-4.731 3.055-1.333 1.311-2.381 2.898-3.145 4.758-.764 1.863-1.144 3.93-1.144 6.202 0 2.312.38 4.378 1.144 6.196.764 1.824 1.824 3.36 3.175 4.615 1.35 1.255 2.946 2.222 4.788 2.908 1.842.686 3.857 1.03 6.052 1.03 5.29 0 9.323-1.884 12.105-5.642l-4.702-3.761a8.369 8.369 0 01-2.994 2.674c-1.216.647-2.705.967-4.465.967a8.267 8.267 0 01-2.941-.527 8.926 8.926 0 01-2.525-1.44 7.02 7.02 0 01-1.794-2.174 6.933 6.933 0 01-.793-2.791h21.448a7.62 7.62 0 00.057-.94v-.938zm23.916-8.817a7.806 7.806 0 012.617 1.932 8.742 8.742 0 011.674 2.869c.39 1.093.587 2.246.587 3.456 0 1.17-.198 2.294-.587 3.366a8.74 8.74 0 01-1.674 2.842 8.1 8.1 0 01-2.644 1.961c-1.04.489-2.205.734-3.498.734-1.255 0-2.378-.254-3.378-.764a7.733 7.733 0 01-2.528-2.018 9.474 9.474 0 01-1.587-2.842 9.798 9.798 0 01-.557-3.28c0-1.248.186-2.419.557-3.512.374-1.096.901-2.04 1.587-2.842a7.419 7.419 0 012.528-1.902c1-.47 2.144-.703 3.438-.703 1.29 0 2.446.233 3.464.703zm4.878-5.642v4.232h-.117c-1.021-1.722-2.39-2.995-4.115-3.818-1.725-.824-3.584-1.234-5.582-1.234-2.114 0-4.025.39-5.729 1.174-1.704.784-3.153 1.842-4.348 3.174-1.195 1.333-2.114 2.899-2.761 4.702-.647 1.8-.97 3.72-.97 5.756 0 2 .332 3.89 1 5.672.665 1.782 1.596 3.339 2.79 4.671 1.196 1.333 2.654 2.39 4.38 3.172 1.721.784 3.64 1.177 5.758 1.177 1.956 0 3.728-.366 5.316-1.1a9.946 9.946 0 003.908-3.174h.117v2.064c0 1.413-.147 2.713-.44 3.893-.294 1.18-.785 2.2-1.468 3.066-.686.863-1.608 1.543-2.764 2.034-1.156.49-2.576.74-4.259.74-1.764 0-3.507-.345-5.228-1.03a14.468 14.468 0 01-4.642-2.968l-4.055 5.465c.898.743 1.916 1.41 3.054 1.997a22.13 22.13 0 003.555 1.468 25.03 25.03 0 003.762.883c1.272.195 2.476.294 3.611.294 2.743 0 5.112-.393 7.113-1.177 1.997-.782 3.65-1.887 4.965-3.318 1.312-1.432 2.282-3.175 2.908-5.23.626-2.056.94-4.36.94-6.905v-25.68zm14.572 0h7.05v28.208h-7.05zm-1-9.577c0-1.135.422-2.123 1.264-2.964.841-.845 1.91-1.264 3.204-1.264 1.29 0 2.378.398 3.258 1.204.884.802 1.324 1.811 1.324 3.024 0 1.216-.44 2.225-1.324 3.028-.88.803-1.967 1.204-3.258 1.204-1.294 0-2.363-.42-3.204-1.264-.842-.841-1.264-1.83-1.264-2.968zm21.655 20.304a9.073 9.073 0 011.497-2.91 7.536 7.536 0 012.528-2.088c1.018-.527 2.23-.79 3.641-.79 1.41 0 2.624.263 3.645.79a7.554 7.554 0 012.524 2.088 9.08 9.08 0 011.5 2.91c.333 1.076.5 2.163.5 3.259 0 1.099-.167 2.195-.5 3.29a9.002 9.002 0 01-1.5 2.939 7.818 7.818 0 01-2.524 2.117c-1.021.548-2.234.82-3.645.82-1.41 0-2.623-.272-3.641-.82a7.798 7.798 0 01-2.528-2.117 8.995 8.995 0 01-1.497-2.938 11.186 11.186 0 01-.5-3.291c0-1.096.164-2.183.5-3.259zm-6.466 9.37c.803 1.843 1.89 3.418 3.261 4.733 1.372 1.311 2.998 2.338 4.879 3.081 1.88.746 3.878 1.12 5.992 1.12 2.117 0 4.115-.374 5.996-1.12 1.877-.743 3.503-1.77 4.875-3.081 1.372-1.315 2.459-2.89 3.261-4.732.803-1.839 1.204-3.878 1.204-6.112 0-2.231-.401-4.259-1.204-6.083-.802-1.82-1.89-3.378-3.261-4.668-1.372-1.294-2.998-2.291-4.875-2.998-1.881-.704-3.879-1.057-5.996-1.057-2.114 0-4.112.353-5.992 1.057-1.88.707-3.507 1.704-4.879 2.998-1.371 1.29-2.458 2.848-3.26 4.668-.803 1.824-1.205 3.852-1.205 6.083 0 2.234.402 4.273 1.204 6.112zM210.727 4.503h24.72v24.72z"/></symbol><symbol viewBox="0 0 30 20" id="mail" xmlns="http://www.w3.org/2000/svg"><path d="M26.93 1.52L15.052 9.093 3.27 1.519zm.357 16.83H2.946l8.35-6.343c.292-.227.357-.68.13-1.004-.227-.291-.68-.356-1.003-.13l-8.966 6.83V2.07l13.206 8.48c.259.162.583.13.81-.032l13.173-8.416v15.504l-8.772-6.732c-.323-.227-.777-.194-1.003.13a.689.689 0 00.13 1.003zM0 .808v18.224c0 .388.324.712.712.712h28.646a.718.718 0 00.712-.712V.807a.718.718 0 00-.712-.712H.712A.718.718 0 000 .807z"/></symbol><symbol viewBox="0 0 31 20" id="mail-bg" xmlns="http://www.w3.org/2000/svg"><path d="M11.347 11.525L1.17 19.941c.123.03.245.059.378.059h27.92c.133 0 .254-.028.378-.059l-10.178-8.416-2.494 2.222a2.508 2.508 0 01-3.333 0zm19.61-10.083l-10.142 9.055 10.142 8.392c.035-.128.059-.263.059-.402V1.844c0-.139-.024-.274-.06-.402zm-30.898 0a1.504 1.504 0 00-.06.402v16.643c0 .14.024.274.06.402L10.2 10.497zm1.49-1.11a1.54 1.54 0 00-.39.058l13.687 12.234c.322.288 1.002.288 1.324 0L29.858.39a1.546 1.546 0 00-.39-.059z"/></symbol><symbol viewBox="0 0 37 51" id="medal" xmlns="http://www.w3.org/2000/svg"><path d="M25.395 14.44l-6.11 9.6a.872.872 0 01-.68.401h-.052a.873.873 0 01-.672-.314l-4.364-5.236a.874.874 0 011.344-1.117l3.596 4.363 5.471-8.596a.873.873 0 011.467.943zm11.232 3.273l-4.861-4.853V5.992a.873.873 0 00-.873-.873h-6.869L19.172.26a.873.873 0 00-1.234-.006l-.005.005L13.08 5.12H6.212a.873.873 0 00-.872.873v6.868L.479 17.713a.873.873 0 00-.006 1.234l.006.005 4.86 4.852v6.868c0 .482.392.873.873.873h6.869l4.852 4.861a.873.873 0 001.234.005l.005-.005 4.852-4.86h6.869a.873.873 0 00.873-.874v-6.868l4.86-4.852a.873.873 0 00.006-1.234z"/><path d="M25.281 34.32l-.776-.776-1.24 1.23.166.166-12.733 12.707V43.58a.873.873 0 00-.873-.873h-4.04l7.994-7.994-1.23-1.23-9.487 9.477a.872.872 0 00-.218.952.87.87 0 00.803.54h5.306v5.298a.87.87 0 00.54.803.872.872 0 00.951-.183l14.837-14.836a.873.873 0 00.005-1.235l-.005-.005zm8.727 8.64l-6.981-6.981a2.489 2.489 0 01-.541.785l-.568.576 5.341 5.341h-4.04a.873.873 0 00-.873.873v4.067l-5.341-5.341-1.24 1.23 6.834 6.834a.872.872 0 00.951.183.873.873 0 00.541-.803v-5.271h5.298a.873.873 0 00.803-.541.872.872 0 00-.184-.952z"/></symbol><symbol viewBox="0 0 154 43" id="nextLevel" xmlns="http://www.w3.org/2000/svg"><path d="M46.784 6.665h3.14l2.414 8.305h.047l2.486-8.305h3.093l2.512 8.305h.047l2.466-8.305h3.016l-4.008 11.59h-2.943l-2.636-8.112h-.047l-2.606 8.113h-2.948zm23.651 4.409a3.74 3.74 0 01.615-1.196 3.18 3.18 0 011.039-.86c.418-.217.922-.324 1.5-.324.576 0 1.076.107 1.499.325.414.218.76.504 1.038.859.273.354.479.752.615 1.196.133.44.205.889.205 1.337 0 .453-.072.906-.205 1.354a3.695 3.695 0 01-.615 1.205 3.326 3.326 0 01-1.038.872c-.423.226-.923.337-1.5.337s-1.08-.11-1.5-.337a3.326 3.326 0 01-1.038-.872 3.696 3.696 0 01-.615-1.205 4.499 4.499 0 010-2.692zm-2.653 3.854a5.892 5.892 0 001.337 1.94 6.045 6.045 0 002.008 1.268 6.665 6.665 0 002.461.462 6.67 6.67 0 002.461-.462 6.045 6.045 0 002.008-1.269 5.956 5.956 0 001.337-1.94c.334-.76.5-1.597.5-2.516 0-.914-.166-1.751-.5-2.5a5.91 5.91 0 00-1.337-1.917 5.966 5.966 0 00-2.008-1.235 7.015 7.015 0 00-2.46-.432c-.868 0-1.693.146-2.462.432a5.966 5.966 0 00-2.008 1.235 5.845 5.845 0 00-1.337 1.918c-.333.748-.5 1.585-.5 2.5 0 .918.167 1.755.5 2.516zm14.812-8.263h2.777v1.931h.052a4.237 4.237 0 011.35-1.64c.58-.42 1.256-.629 2.029-.629.111 0 .235.005.359.013.132.009.243.026.342.06v2.657a3.72 3.72 0 00-.496-.098 3.22 3.22 0 00-.402-.026c-.657 0-1.187.124-1.593.364a2.944 2.944 0 00-.94.871c-.226.338-.38.684-.457 1.038-.081.355-.124.633-.124.842v6.208h-2.897zM91.75 0h2.897v11.544h.072l4.396-4.88h3.717l-5.024 5.243 5.336 6.349h-3.836l-4.589-5.939h-.072v5.939H91.75zm13.547 6.665h2.897v11.59h-2.897zm-.41-3.935c0-.47.171-.871.517-1.222.346-.346.786-.517 1.316-.517s.978.163 1.342.496c.363.329.542.743.542 1.243 0 .5-.18.914-.542 1.243-.364.33-.812.496-1.342.496s-.97-.175-1.316-.521a1.665 1.665 0 01-.517-1.218zm6.613 3.935h2.757v1.863h.047c.26-.581.704-1.094 1.341-1.538.637-.44 1.389-.663 2.256-.663.756 0 1.405.133 1.944.398.542.265.982.615 1.328 1.05.346.436.599.936.76 1.5a6.21 6.21 0 01.244 1.735v7.246h-2.896v-6.422c0-.337-.026-.692-.073-1.063a2.92 2.92 0 00-.316-1 2.089 2.089 0 00-.666-.74c-.282-.192-.654-.29-1.12-.29-.465 0-.871.094-1.209.278a2.605 2.605 0 00-.833.713c-.218.29-.38.624-.491 1.004-.116.376-.171.76-.171 1.145v6.375H111.5zm19.346 2.029c.53 0 1.004.099 1.427.29a3.18 3.18 0 011.072.795c.3.334.53.727.688 1.18.162.448.244.918.244 1.418 0 .478-.082.944-.244 1.384-.158.44-.389.833-.688 1.167a3.362 3.362 0 01-1.085.807c-.427.2-.906.3-1.44.3a3.01 3.01 0 01-1.388-.313 3.184 3.184 0 01-1.038-.829 3.867 3.867 0 01-.65-1.17 3.979 3.979 0 01-.23-1.346c0-.513.076-.995.23-1.444a3.58 3.58 0 01.65-1.17 3.101 3.101 0 011.038-.778c.41-.192.884-.29 1.414-.29zm3.43-2.03v1.74h-.05a3.828 3.828 0 00-1.688-1.568 5.212 5.212 0 00-2.294-.509c-.872 0-1.658.158-2.354.483a5.392 5.392 0 00-1.79 1.303 5.762 5.762 0 00-1.133 1.931 6.987 6.987 0 00-.397 2.367c0 .825.132 1.602.406 2.333.273.73.658 1.371 1.15 1.918a5.34 5.34 0 001.798 1.303c.709.325 1.495.483 2.367.483.803 0 1.533-.15 2.183-.449a4.114 4.114 0 001.61-1.307h.047v.85c0 .581-.064 1.115-.18 1.598a3.297 3.297 0 01-.606 1.26 2.834 2.834 0 01-1.136.838c-.474.2-1.055.303-1.752.303-.722 0-1.44-.14-2.145-.423a6.01 6.01 0 01-1.91-1.217l-1.665 2.243c.371.307.79.58 1.256.82a9.15 9.15 0 001.46.607 10.217 10.217 0 003.03.483c1.128 0 2.102-.163 2.922-.483.82-.325 1.5-.778 2.042-1.363.539-.59.936-1.303 1.197-2.15.256-.845.384-1.794.384-2.84V6.665zM48.424 30.261h2.752v1.858h.05c.257-.58.706-1.093 1.342-1.533.633-.44 1.389-.663 2.256-.663.756 0 1.406.133 1.944.398.543.265.983.615 1.329 1.05.346.437.598.932.76 1.496.163.564.24 1.145.24 1.739v7.246H56.2v-6.426c0-.333-.026-.692-.069-1.064a3.014 3.014 0 00-.316-1 2.142 2.142 0 00-.662-.734c-.282-.192-.658-.29-1.123-.29-.47 0-.872.089-1.21.277a2.593 2.593 0 00-.833.71c-.218.29-.38.623-.495 1.003-.116.38-.167.765-.167 1.15v6.374h-2.9zm15.868 4.635c.064-.82.397-1.495 1.004-2.016.602-.526 1.337-.786 2.208-.786.466 0 .872.077 1.218.23.346.154.632.36.859.616.226.26.389.555.491.893.107.337.158.696.158 1.063zm8.835 1.303c0-1.046-.141-1.96-.419-2.738-.282-.782-.675-1.431-1.175-1.957a4.829 4.829 0 00-1.773-1.183 6.137 6.137 0 00-2.23-.398c-.872 0-1.683.146-2.43.445a5.8 5.8 0 00-1.945 1.256 5.767 5.767 0 00-1.29 1.957c-.312.764-.47 1.614-.47 2.55 0 .949.158 1.794.47 2.542a5.313 5.313 0 001.303 1.897c.555.517 1.21.914 1.97 1.196.756.282 1.585.423 2.486.423 2.175 0 3.832-.773 4.973-2.32l-1.931-1.546c-.32.47-.735.837-1.23 1.102-.5.265-1.111.397-1.838.397a3.38 3.38 0 01-1.204-.217 3.641 3.641 0 01-1.039-.59 2.962 2.962 0 01-.739-.893 2.935 2.935 0 01-.324-1.15h8.813a2.9 2.9 0 00.022-.384V36.2zm5.579-.508l-4.178-5.43h3.482l2.508 3.597 2.585-3.597h3.332l-4.153 5.43 4.734 6.16h-3.529l-3.016-4.225-3.042 4.226H74zm9.203-3.114V30.26h2.03v-3.358h2.85v3.358h2.896v2.316h-2.897v5.387c0 .517.09.94.278 1.282.183.337.598.504 1.243.504.192 0 .402-.017.628-.06.227-.038.427-.098.602-.18l.099 2.27c-.26.097-.564.17-.919.23a6.54 6.54 0 01-1.012.081c-.774 0-1.402-.107-1.884-.325-.483-.213-.868-.512-1.145-.893a3.256 3.256 0 01-.581-1.303 7.425 7.425 0 01-.159-1.58v-5.413zm16.107-8.981h2.9v18.256h-2.9zm8.476 11.3c.064-.82.397-1.495 1.004-2.016.602-.526 1.337-.786 2.209-.786.466 0 .871.077 1.217.23.347.154.633.36.86.616.221.26.388.555.495.893.107.337.158.696.158 1.063zm8.84 1.303c0-1.046-.142-1.96-.423-2.738-.282-.782-.671-1.431-1.171-1.957a4.846 4.846 0 00-1.777-1.183 6.127 6.127 0 00-2.235-.398 6.46 6.46 0 00-2.422.445 5.717 5.717 0 00-1.944 1.256 5.838 5.838 0 00-1.295 1.957c-.316.764-.47 1.614-.47 2.55 0 .949.154 1.794.47 2.542a5.367 5.367 0 001.303 1.897 5.858 5.858 0 001.97 1.196c.756.282 1.585.423 2.486.423 2.175 0 3.833-.773 4.978-2.32l-1.936-1.546c-.32.47-.73.837-1.23 1.102-.5.265-1.11.397-1.833.397-.423 0-.824-.072-1.209-.217a3.7 3.7 0 01-1.038-.59 2.948 2.948 0 01-.735-.893 2.868 2.868 0 01-.329-1.15h8.814c.017-.127.026-.256.026-.384V36.2zm.965-5.938h3.162l3.046 8.45h.047l3.067-8.45h3.063l-4.61 11.59h-3.088zm16.205 4.635c.06-.82.397-1.495 1.004-2.016.598-.526 1.337-.786 2.209-.786.465 0 .871.077 1.217.23.346.154.633.36.86.616.221.26.388.555.49.893.107.337.159.696.159 1.063zm8.835 1.303c0-1.046-.14-1.96-.418-2.738-.283-.782-.676-1.431-1.175-1.957a4.864 4.864 0 00-1.773-1.183 6.144 6.144 0 00-2.235-.398c-.867 0-1.679.146-2.427.445a5.8 5.8 0 00-1.943 1.256 5.84 5.84 0 00-1.295 1.957c-.312.764-.466 1.614-.466 2.55 0 .949.154 1.794.466 2.542a5.377 5.377 0 001.307 1.897c.556.517 1.21.914 1.97 1.196.756.282 1.585.423 2.486.423 2.17 0 3.833-.773 4.973-2.32l-1.93-1.546c-.321.47-.736.837-1.235 1.102-.496.265-1.107.397-1.833.397-.419 0-.82-.072-1.205-.217a3.642 3.642 0 01-1.038-.59 2.962 2.962 0 01-.74-.893 2.864 2.864 0 01-.324-1.15h8.814c.013-.127.021-.256.021-.384V36.2zm2.901-12.603h2.897v18.256h-2.897zM-.096 6.425h35.267V41.69z"/></symbol><symbol viewBox="0 0 26 25" id="phone" xmlns="http://www.w3.org/2000/svg"><path d="M21.427 13.119h-.203a.71.71 0 01-.456-.861 5.57 5.57 0 00-1.418-5.672 5.672 5.672 0 00-5.773-1.367.709.709 0 01-.86-.405.709.709 0 01.433-.904l.022-.008a6.989 6.989 0 018.913 8.71.709.709 0 01-.658.507z"/><path d="M24.82 13.321h-.152a.659.659 0 01-.515-.776l.008-.034a9.318 9.318 0 00-2.532-8.204 8.963 8.963 0 00-8.102-2.228.658.658 0 01-.81-.507.658.658 0 01.506-.81 10.381 10.381 0 019.369 2.583 10.534 10.534 0 012.886 9.47.709.709 0 01-.658.506zM8.513 6.485L5.981 9.118a.708.708 0 00-.203.71 15.65 15.65 0 009.42 9.621.76.76 0 00.709-.203l2.684-2.835 5.165 3.038c-.05 1.215-.709 3.14-2.481 3.494-.866.182-1.749.267-2.633.254-9.724 0-15.497-10.686-16.864-14.737-.659-1.975-.557-3.545.304-4.811A5.673 5.673 0 015.728 1.42zm10.23 18.079a14.234 14.234 0 002.836-.304c2.684-.557 3.697-3.444 3.494-5.267a.556.556 0 00-.304-.506l-5.976-3.494a.76.76 0 00-.86.1l-2.735 2.887a14.333 14.333 0 01-7.95-8.204L9.88 7.092a.709.709 0 00.102-.81L6.69.357a.608.608 0 00-.608-.354c-1.266.1-4 1.266-5.115 2.886C-.147 4.51-.299 6.535.512 8.865c2.076 6.431 8.76 15.699 18.23 15.699z"/></symbol><symbol viewBox="0 0 20 28" id="phone-bg" xmlns="http://www.w3.org/2000/svg"><path d="M19.225 23.605l-3.404-4.06c-.82-.886-1.767-1.245-2.903-.66l-1.137.608c-.631.323-.636.51-.87.87-.609.95-1.428.735-1.815.324-1.638-1.745-3.678-5.668-3.697-5.704-.684-1.331-1.101-2.725-1.346-4.109-.092-.556.193-1.344 1.32-1.289.431.022.584.126 1.216-.199l1.156-.572c1.136-.582 1.397-1.56 1.154-2.743L7.583.94A1.93 1.93 0 004.992.087L2.525 1.328c-.427.216-.825.66-1.083 1.167-2.081 3.517-1.96 9.06.693 14.222.097.192 4.16 10.082 12.251 10.974.562.086 1.152.022 1.577-.201l2.448-1.281a1.93 1.93 0 00.814-2.604z"/></symbol><symbol viewBox="0 0 19 23" id="play" xmlns="http://www.w3.org/2000/svg"><path d="M18.424 10.797c-.154-.327-.429-.535-.72-.722l-.675-.432-2.56-1.638c-1.176-.754-2.355-1.507-3.532-2.26-1.238-.79-2.473-1.583-3.71-2.373-1.034-.66-2.068-1.322-3.101-1.983L2.43.305C2.048.06 1.621-.067 1.163.037.453.197.003.849 0 1.555v19.863c0 .02.002.04.006.06.03.53.328 1.034.815 1.273a1.527 1.527 0 001.49-.061c.104-.065.207-.132.308-.2.68-.433 1.361-.87 2.042-1.304l3.285-2.101c1.24-.796 2.484-1.588 3.725-2.384 1.132-.722 2.263-1.448 3.395-2.17.762-.488 1.526-.975 2.288-1.465.16-.1.32-.205.479-.305a1.63 1.63 0 00.406-.353 1.528 1.528 0 00.185-1.61z"/></symbol><symbol viewBox="0 0 17 17" id="search" xmlns="http://www.w3.org/2000/svg"><path d="M1.388 6.613a5.225 5.225 0 1110.45 0 5.225 5.225 0 01-10.45 0zm14.685 7.9l-4.464-4.029a6.335 6.335 0 10-1.125 1.125l4.028 4.464a1.106 1.106 0 101.56-1.56z"/></symbol><symbol viewBox="0 0 41 44" id="time" xmlns="http://www.w3.org/2000/svg"><path d="M34.728 6.613C30.855 2.74 25.77.622 20.325.622c-3.934 0-7.686 1.09-10.954 3.207-.726.424-.908 1.392-.484 2.118.424.727 1.392.908 2.118.485 2.784-1.755 5.991-2.724 9.32-2.724 9.561 0 17.368 7.807 17.368 17.369 0 9.561-7.807 17.368-17.368 17.368a18.59 18.59 0 01-3.208-.303l.848-1.694c.423-.787-.182-1.755-1.09-1.695l-7.443.242c-.969.061-1.453 1.09-.908 1.877l4.357 6.051c.545.726 1.634.605 1.997-.181l.908-1.816c1.513.363 3.026.545 4.6.545 5.446 0 10.53-2.118 14.402-5.991 3.873-3.873 5.991-8.957 5.991-14.403-.06-5.507-2.178-10.59-6.051-14.464z"/><path d="M20.325 5.524c-.848 0-1.513.665-1.513 1.513V21.5s0 .06.06.06c0 0 0 .061.06.061 0 0 0 .06.061.06 0 0 0 .061.06.061l.061.06s0 .061.06.061l.061.06.06.061.061.06.061.061 7.988 5.992c.303.181.605.302.908.302.484 0 .908-.181 1.21-.605.484-.666.363-1.634-.302-2.118l-7.383-5.568V7.037c0-.847-.666-1.513-1.513-1.513zM2.614 11.625a1.452 1.452 0 112.904 0 1.452 1.452 0 01-2.904 0zM.052 21.016a1.452 1.452 0 112.904 0 1.452 1.452 0 01-2.904 0zM2.58 30.4a1.452 1.452 0 112.904 0 1.452 1.452 0 01-2.905 0z"/></symbol></svg>