<?xml version="1.0" encoding="utf-8"?><svg xmlns="http://www.w3.org/2000/svg" xmlns:xlink="http://www.w3.org/1999/xlink"><symbol viewBox="0 0 17 20" id="XING" xmlns="http://www.w3.org/2000/svg"><path d="M16.856.621L10.51 11.838v.016l4.033 7.385c.093.154.099.299.016.434-.072.123-.202.186-.388.186h-2.854c-.331 0-.6-.182-.807-.543-2.7-4.954-4.054-7.442-4.064-7.463L12.822.543c.197-.362.45-.543.76-.543h2.902c.176 0 .3.062.373.187.083.124.083.269-.001.434zM3.312 13.917H.442a.408.408 0 01-.372-.202.373.373 0 010-.435l3.04-5.367v-.015L1.172 4.546c-.083-.176-.087-.326-.015-.45.083-.114.217-.17.404-.17h2.854c.32 0 .59.175.806.527a373.222 373.222 0 011.956 3.445l-3.088 5.46c-.196.372-.455.56-.776.56z"/></symbol><symbol viewBox="0 0 344.96 344.96" id="check" xmlns="http://www.w3.org/2000/svg"><g data-name="Слой 2"><path d="M321.85 86.24l-40-23.11-23.1-40H212.5L172.48 0l-40 23.11H86.24l-23.11 40-40 23.1v46.21L0 172.48l23.11 40v46.21l40 23.11 23.11 40h46.21l40 23.1 40-23.11h46.21l23.11-40 40-23.11V212.5l23.11-40-23.11-40V86.24zM156.91 243.07a16.79 16.79 0 01-23.34 0l-50.45-50.44a16.19 16.19 0 010-22.89l13.35-13.35a16.19 16.19 0 0122.89 0l25.87 25.87 80.34-80.35a16.19 16.19 0 0122.89 0l13.35 13.35a16.19 16.19 0 010 22.89z" data-name="Capa 1"/></g></symbol><symbol id="chevron-down" viewBox="0 0 21.4 32" xml:space="preserve" xmlns="http://www.w3.org/2000/svg"><style/><path d="M17.9 11.9c-.2-.3-.6-.4-.9-.5-.3 0-.7.1-1 .3l-5.5 5.5-5.1-5.1c-.5-.5-1.3-.5-1.9 0-.5.5-.5 1.4 0 1.9l6.1 6.1c.2.3.6.4.9.4.3 0 .7-.1 1-.4l6.3-6.3c.3-.2.4-.6.5-.9 0-.4-.1-.7-.4-1z"/></symbol><symbol id="contact-location" viewBox="0 0 21.4 32" xml:space="preserve" xmlns="http://www.w3.org/2000/svg"><style/><path id="dPfad_134_2_" d="M10.7 0C5.1 0 .5 4.5.5 10.1c0 2 .6 3.9 1.6 5.5l5.6 8.7c-1.1.2-2.1.6-3 1.1-1 .5-1.6 1.5-1.7 2.5 0 1.3 1.1 2.3 2.4 3 1.6.7 3.4 1.1 5.2 1 1.8 0 3.6-.3 5.2-1 1.4-.7 2.4-1.6 2.4-3 0-.6-.2-1.1-.6-1.6-.2-.3-.7-.4-1-.1-.3.2-.4.7-.1 1 .2.2.3.4.3.7 0 .5-.5 1.1-1.6 1.6-1.4.6-3 .9-4.6.9-1.6 0-3.1-.3-4.6-.9-1-.4-1.5-1-1.5-1.5 0-.4.3-.9 1-1.3.9-.5 2-.9 3-1.1L10 28c.2.3.7.4 1 .2.1-.1.2-.1.2-.2l8-12.4c3-4.7 1.7-11-3-14C14.6.6 12.7 0 10.7 0zm0 1.5c4.8 0 8.7 3.9 8.7 8.7 0 1.7-.5 3.3-1.4 4.7l-7.3 11.4-7.3-11.4C.8 10.9 2 5.5 6 2.9c1.4-1 3-1.5 4.7-1.4zm0 4.3c-2.4 0-4.4 2-4.4 4.4 0 2.4 2 4.4 4.4 4.4 2.4 0 4.4-2 4.4-4.4 0-2.4-2-4.4-4.4-4.4zm0 1.5c1.6 0 2.9 1.3 2.9 2.9 0 1.6-1.3 2.9-2.9 2.9s-2.9-1.3-2.9-2.9c0-1.6 1.3-2.9 2.9-2.9zm4.4 17.4c-.4 0-.7.3-.7.7 0 .4.3.7.7.7.4 0 .7-.3.7-.7 0-.3-.3-.7-.7-.7z"/></symbol><symbol viewBox="0 0 10 22" id="fb" xmlns="http://www.w3.org/2000/svg"><path d="M9.568 10.72H6.566v10.705H2.118V10.72H0V6.94h2.118V4.491C2.118 2.738 2.949 0 6.606 0L9.9.013v3.672H7.51c-.39 0-.944.194-.944 1.03V6.94h3.391z"/></symbol><symbol viewBox="0 0 18 17" id="in" xmlns="http://www.w3.org/2000/svg"><path d="M17.909 17.117h-3.84V10.94c0-1.553-.554-2.613-1.945-2.613-1.06 0-1.692.718-1.97 1.406-.101.248-.126.59-.126.936v6.45H6.19s.049-10.466 0-11.548h3.838v1.635c.511-.787 1.422-1.906 3.46-1.906 2.524 0 4.42 1.65 4.42 5.198zM2.146 3.994H2.12C.833 3.994 0 3.104 0 1.998 0 .863.86 0 2.17 0c1.315 0 2.124.863 2.147 1.998 0 1.106-.832 1.996-2.171 1.996zm1.92 13.123H.225V5.57h3.84z"/></symbol><symbol viewBox="0 0 20 20" id="inst" xmlns="http://www.w3.org/2000/svg"><path d="M15.355 3.025a1.294 1.294 0 11-1.297 1.294c0-.717.578-1.294 1.297-1.294zm-5.52 1.837a4.977 4.977 0 014.975 4.973 4.981 4.981 0 01-4.975 4.978 4.981 4.981 0 01-4.976-4.978 4.977 4.977 0 014.976-4.973zm3.813 14.809a6.03 6.03 0 006.024-6.021V6.025A6.032 6.032 0 0013.648 0H6.022C2.705 0 .002 2.703.002 6.025v7.625c0 3.32 2.703 6.02 6.02 6.02z"/></symbol><symbol viewBox="0 0 319 66" id="logo" xmlns="http://www.w3.org/2000/svg"><path d="M243.587 4.672h2.201l1.692 5.821h.033l1.743-5.821h2.168l1.761 5.821h.033l1.728-5.821h2.114l-2.809 8.124h-2.063L250.34 7.11h-.033l-1.827 5.687h-2.066zm16.579 3.09c.096-.311.24-.59.431-.838.195-.249.437-.45.728-.602.293-.153.647-.228 1.05-.228.405 0 .756.075 1.052.228.29.153.533.353.728.602.191.248.335.527.431.838.093.309.144.623.144.938 0 .317-.051.635-.144.949a2.59 2.59 0 01-.431.844 2.331 2.331 0 01-.728.611c-.296.16-.647.237-1.051.237-.404 0-.758-.078-1.051-.237a2.332 2.332 0 01-.728-.61 2.59 2.59 0 01-.431-.845 3.153 3.153 0 010-1.887zm-1.86 2.702a4.13 4.13 0 002.345 2.249 4.672 4.672 0 001.725.323c.608 0 1.186-.11 1.725-.323a4.237 4.237 0 001.407-.89c.393-.377.707-.83.938-1.36.233-.533.35-1.12.35-1.763 0-.641-.117-1.228-.35-1.752a4.142 4.142 0 00-.938-1.345 4.182 4.182 0 00-1.407-.865 4.918 4.918 0 00-1.725-.303 4.91 4.91 0 00-1.725.303 4.182 4.182 0 00-1.408.865c-.395.374-.706.82-.937 1.345a4.267 4.267 0 00-.35 1.752c0 .644.116 1.23.35 1.764zm10.383-5.792h1.946v1.353h.036a2.97 2.97 0 01.947-1.15c.407-.293.88-.44 1.422-.44.078 0 .165.003.252.01.092.005.17.017.24.041V6.35a2.607 2.607 0 00-.348-.07 2.257 2.257 0 00-.282-.017c-.46 0-.832.087-1.117.254a2.083 2.083 0 00-.979 1.339 2.813 2.813 0 00-.087.59v4.351h-2.03zM275.106 0h2.03v8.092h.052l3.081-3.42h2.606l-3.522 3.674 3.74 4.45h-2.689l-3.216-4.162h-.051v4.162h-2.03zm9.497 4.672h2.03v8.124h-2.03zm-.288-2.758c0-.33.12-.611.363-.857.242-.242.55-.362.922-.362.371 0 .686.114.94.347.255.23.38.521.38.872 0 .35-.125.64-.38.871-.254.23-.569.347-.94.347s-.68-.122-.922-.365a1.167 1.167 0 01-.363-.853zm4.636 2.758h1.932v1.305h.032c.183-.407.495-.766.94-1.078.447-.308.974-.464 1.582-.464.53 0 .985.093 1.363.279.38.185.688.43.931.736.243.306.42.656.533 1.052.114.395.17.8.17 1.215v5.08h-2.03V8.294a5.96 5.96 0 00-.05-.745 2.046 2.046 0 00-.222-.701 1.464 1.464 0 00-.467-.518c-.198-.135-.459-.204-.785-.204s-.61.066-.847.195a1.826 1.826 0 00-.584.5 2.174 2.174 0 00-.345.704 2.73 2.73 0 00-.12.802v4.468h-2.033zm13.56 1.422c.371 0 .704.07 1 .204.29.135.542.317.752.557.21.233.371.509.482.826.114.315.17.644.17.995 0 .335-.056.662-.17.97-.11.308-.272.584-.482.818a2.37 2.37 0 01-.76.566c-.3.14-.636.21-1.01.21-.36 0-.686-.073-.973-.22a2.232 2.232 0 01-.728-.58 2.71 2.71 0 01-.455-.821 2.789 2.789 0 01-.162-.943c0-.36.054-.698.162-1.013.108-.314.257-.586.455-.82.198-.228.44-.41.728-.545.287-.135.62-.204.991-.204zm2.405-1.422V5.89h-.036a2.683 2.683 0 00-1.183-1.1 3.653 3.653 0 00-1.608-.356c-.611 0-1.162.111-1.65.339a3.78 3.78 0 00-1.255.913 4.039 4.039 0 00-.794 1.354 4.898 4.898 0 00-.278 1.659c0 .578.093 1.123.284 1.635.192.512.461.961.806 1.344.344.384.764.69 1.26.914a3.932 3.932 0 001.66.338 3.63 3.63 0 001.53-.314 2.88 2.88 0 001.129-.917h.033v.596c0 .408-.045.782-.126 1.12a2.311 2.311 0 01-.425.884 1.986 1.986 0 01-.797.587c-.332.14-.74.212-1.228.212a4.015 4.015 0 01-1.503-.296 4.213 4.213 0 01-1.338-.854l-1.168 1.573c.26.215.554.407.88.575.326.17.668.311 1.024.425a7.162 7.162 0 002.123.338c.791 0 1.474-.114 2.049-.338a3.843 3.843 0 001.431-.955c.378-.414.656-.914.839-1.507a6.85 6.85 0 00.27-1.991V4.672zm-60.179 16.54h1.929v1.302h.036c.18-.407.494-.766.94-1.075.443-.308.973-.464 1.581-.464.53 0 .985.093 1.363.278.38.186.688.432.931.737.243.306.42.653.533 1.048.114.396.168.803.168 1.22v5.078h-2.03v-4.504a6.63 6.63 0 00-.049-.746 2.113 2.113 0 00-.221-.7 1.501 1.501 0 00-.464-.515c-.198-.135-.462-.204-.788-.204-.33 0-.61.063-.847.195a1.817 1.817 0 00-.584.497 2.24 2.24 0 00-.348.704 2.76 2.76 0 00-.117.805v4.468h-2.033zm11.123 3.248a1.997 1.997 0 01.703-1.413c.422-.368.937-.55 1.548-.55.327 0 .611.053.854.161.242.108.443.252.602.431.159.183.272.39.344.626.075.237.111.488.111.746zm6.192.914c0-.733-.098-1.374-.293-1.92a3.856 3.856 0 00-.824-1.371 3.385 3.385 0 00-1.242-.83 4.301 4.301 0 00-1.564-.278c-.61 0-1.18.102-1.704.311-.524.21-.979.504-1.362.88a4.042 4.042 0 00-.905 1.372 4.694 4.694 0 00-.329 1.788c0 .665.11 1.258.33 1.782.218.527.523.97.913 1.33.39.362.847.64 1.38.838.53.198 1.111.297 1.743.297 1.525 0 2.686-.542 3.486-1.626l-1.354-1.084a2.4 2.4 0 01-.862.772c-.35.186-.779.279-1.288.279a2.37 2.37 0 01-.844-.153 2.552 2.552 0 01-.728-.413 2.077 2.077 0 01-.518-.626 2.057 2.057 0 01-.228-.806h6.178c.012-.09.015-.18.015-.27v-.272zm3.912-.356l-2.93-3.806h2.441l1.758 2.521 1.812-2.521h2.336l-2.91 3.806 3.317 4.318h-2.473l-2.115-2.962-2.132 2.962h-2.405zm6.45-2.183v-1.623h1.423v-2.354h1.997v2.354h2.03v1.623h-2.03v3.776c0 .362.063.659.195.898.129.237.42.354.871.354.135 0 .282-.012.44-.042.16-.027.3-.069.423-.126l.069 1.59c-.183.07-.396.12-.644.162a4.584 4.584 0 01-.71.057c-.542 0-.982-.075-1.32-.228a1.945 1.945 0 01-.803-.626 2.283 2.283 0 01-.408-.913 5.205 5.205 0 01-.11-1.108v-3.794zm11.29-6.295h2.034v12.796h-2.034zm5.942 7.92a1.997 1.997 0 01.704-1.413c.422-.368.937-.55 1.548-.55.326 0 .61.053.853.161.243.108.444.252.602.431.156.183.273.39.348.626a2.5 2.5 0 01.11.746zm6.196.914c0-.733-.099-1.374-.297-1.92a3.85 3.85 0 00-.82-1.371 3.397 3.397 0 00-1.246-.83 4.31 4.31 0 00-1.566-.278 4.54 4.54 0 00-1.698.311 4.02 4.02 0 00-1.363.88 4.093 4.093 0 00-.907 1.372c-.222.537-.33 1.132-.33 1.788 0 .665.108 1.258.33 1.782.221.527.524.97.913 1.33.39.362.85.64 1.38.838a4.95 4.95 0 001.744.297c1.524 0 2.686-.542 3.488-1.626l-1.356-1.084a2.372 2.372 0 01-.863.772c-.35.186-.778.279-1.284.279-.297 0-.578-.051-.848-.153a2.593 2.593 0 01-.728-.413 2.01 2.01 0 01-.746-1.431h6.179c.012-.09.018-.18.018-.27v-.273zm.677-4.162h2.216l2.135 5.923h.033l2.15-5.923h2.147l-3.231 8.124h-2.165zm11.359 3.248a1.986 1.986 0 01.703-1.413c.42-.368.938-.55 1.549-.55.326 0 .61.053.853.161.243.108.443.252.602.431.156.183.273.39.344.626.075.237.111.488.111.746zm6.193.914c0-.733-.1-1.374-.294-1.92a3.856 3.856 0 00-.823-1.371 3.41 3.41 0 00-1.243-.83 4.306 4.306 0 00-1.566-.278c-.608 0-1.177.102-1.701.311-.524.21-.98.504-1.363.88a4.093 4.093 0 00-.907 1.372 4.694 4.694 0 00-.327 1.788c0 .665.108 1.258.327 1.782.221.527.527.97.916 1.33.39.362.847.64 1.38.838.53.198 1.112.297 1.743.297 1.522 0 2.687-.542 3.486-1.626l-1.353-1.084a2.38 2.38 0 01-.866.772c-.347.186-.775.279-1.285.279a2.37 2.37 0 01-.844-.153 2.553 2.553 0 01-.728-.413 2.076 2.076 0 01-.518-.626 2.008 2.008 0 01-.227-.806h6.178c.009-.09.015-.18.015-.27v-.272zm2.033-8.834h2.03v12.796h-2.03zM.997 23.005H8.05v28.208H.997zM0 13.428c0-1.135.422-2.123 1.264-2.964C2.105 9.619 3.17 9.2 4.465 9.2s2.381.398 3.261 1.204c.884.802 1.324 1.811 1.324 3.024 0 1.216-.44 2.225-1.324 3.028-.88.803-1.967 1.204-3.26 1.204-1.295 0-2.36-.42-3.202-1.264C.422 15.555 0 14.566 0 13.428zm49.886 8.757c1.842 0 3.42.323 4.732.967 1.311.65 2.39 1.5 3.23 2.558a10.349 10.349 0 011.852 3.644 15.31 15.31 0 01.587 4.232v17.627h-7.05v-15.63c0-.823-.06-1.686-.177-2.587a7.07 7.07 0 00-.763-2.438 5.044 5.044 0 00-1.617-1.79c-.686-.474-1.597-.708-2.732-.708-1.099 0-2.036.234-2.82.707a6.115 6.115 0 00-1.938 1.818 7.814 7.814 0 00-1.117 2.5c-.234.92-.354 1.83-.354 2.732v15.396h-7.05v-17.04c0-1.764-.421-3.223-1.263-4.379-.844-1.156-2.168-1.734-3.968-1.734-1.057 0-1.98.225-2.761.674a5.803 5.803 0 00-1.91 1.737 7.982 7.982 0 00-1.118 2.438 10.45 10.45 0 00-.38 2.791v15.513h-7.053V23.005h6.7v4.525h.12a8.312 8.312 0 011.26-1.997 9.92 9.92 0 011.88-1.704 8.95 8.95 0 012.498-1.204c.94-.293 1.977-.44 3.115-.44 2.195 0 4.013.488 5.462 1.467a9.763 9.763 0 013.351 3.878c.94-1.722 2.193-3.042 3.762-3.965 1.566-.919 3.408-1.38 5.522-1.38zM90.608 36.99a11.3 11.3 0 01-.5 3.292 9.054 9.054 0 01-1.497 2.938 7.861 7.861 0 01-2.528 2.117c-1.018.548-2.213.82-3.582.82-1.293 0-2.45-.263-3.467-.79a8.471 8.471 0 01-2.615-2.087 9.003 9.003 0 01-1.647-2.911 9.924 9.924 0 01-.557-3.259c0-1.096.186-2.195.557-3.29a8.975 8.975 0 011.647-2.939 8.825 8.825 0 012.615-2.114c1.018-.55 2.174-.823 3.467-.823 1.369 0 2.564.263 3.582.79a7.595 7.595 0 012.528 2.088 9.133 9.133 0 011.497 2.91c.332 1.076.5 2.163.5 3.259zM67.4 23.006v42.31h7.05V47.45h.12c.898 1.41 2.183 2.528 3.845 3.351 1.665.82 3.497 1.234 5.495 1.234 2.153 0 4.085-.404 5.789-1.207 1.704-.8 3.153-1.88 4.348-3.231 1.195-1.35 2.117-2.938 2.761-4.759.647-1.82.97-3.77.97-5.848 0-2.076-.332-4.013-1-5.816-.668-1.8-1.605-3.37-2.818-4.702a13.224 13.224 0 00-4.351-3.144c-1.683-.764-3.525-1.144-5.522-1.144-1.294 0-2.46.147-3.498.44a13.405 13.405 0 00-2.788 1.117c-.824.45-1.522.958-2.088 1.527a10.256 10.256 0 00-1.38 1.674h-.177v-3.938zm42.129 11.284c.155-1.998.97-3.633 2.437-4.909 1.47-1.27 3.265-1.907 5.379-1.907 1.135 0 2.123.185 2.968.557.841.37 1.536.871 2.084 1.5.548.626.95 1.35 1.204 2.174.254.82.383 1.683.383 2.584zm21.505 3.174c0-2.549-.342-4.77-1.027-6.67-.686-1.901-1.636-3.488-2.851-4.76a11.823 11.823 0 00-4.319-2.882c-1.665-.644-3.474-.967-5.432-.967-2.117 0-4.085.362-5.906 1.087-1.824.725-3.402 1.743-4.731 3.055-1.333 1.311-2.381 2.898-3.145 4.758-.764 1.863-1.144 3.93-1.144 6.202 0 2.312.38 4.378 1.144 6.196.764 1.824 1.824 3.36 3.175 4.615 1.35 1.255 2.946 2.222 4.788 2.908 1.842.686 3.857 1.03 6.052 1.03 5.29 0 9.323-1.884 12.105-5.642l-4.702-3.761a8.369 8.369 0 01-2.994 2.674c-1.216.647-2.705.967-4.465.967a8.267 8.267 0 01-2.941-.527 8.926 8.926 0 01-2.525-1.44 7.02 7.02 0 01-1.794-2.174 6.933 6.933 0 01-.793-2.791h21.448a7.62 7.62 0 00.057-.94v-.938zm23.916-8.817a7.806 7.806 0 012.617 1.932 8.742 8.742 0 011.674 2.869c.39 1.093.587 2.246.587 3.456 0 1.17-.198 2.294-.587 3.366a8.74 8.74 0 01-1.674 2.842 8.1 8.1 0 01-2.644 1.961c-1.04.489-2.205.734-3.498.734-1.255 0-2.378-.254-3.378-.764a7.733 7.733 0 01-2.528-2.018 9.474 9.474 0 01-1.587-2.842 9.798 9.798 0 01-.557-3.28c0-1.248.186-2.419.557-3.512.374-1.096.901-2.04 1.587-2.842a7.419 7.419 0 012.528-1.902c1-.47 2.144-.703 3.438-.703 1.29 0 2.446.233 3.464.703zm4.878-5.642v4.232h-.117c-1.021-1.722-2.39-2.995-4.115-3.818-1.725-.824-3.584-1.234-5.582-1.234-2.114 0-4.025.39-5.729 1.174-1.704.784-3.153 1.842-4.348 3.174-1.195 1.333-2.114 2.899-2.761 4.702-.647 1.8-.97 3.72-.97 5.756 0 2 .332 3.89 1 5.672.665 1.782 1.596 3.339 2.79 4.671 1.196 1.333 2.654 2.39 4.38 3.172 1.721.784 3.64 1.177 5.758 1.177 1.956 0 3.728-.366 5.316-1.1a9.946 9.946 0 003.908-3.174h.117v2.064c0 1.413-.147 2.713-.44 3.893-.294 1.18-.785 2.2-1.468 3.066-.686.863-1.608 1.543-2.764 2.034-1.156.49-2.576.74-4.259.74-1.764 0-3.507-.345-5.228-1.03a14.468 14.468 0 01-4.642-2.968l-4.055 5.465c.898.743 1.916 1.41 3.054 1.997a22.13 22.13 0 003.555 1.468 25.03 25.03 0 003.762.883c1.272.195 2.476.294 3.611.294 2.743 0 5.112-.393 7.113-1.177 1.997-.782 3.65-1.887 4.965-3.318 1.312-1.432 2.282-3.175 2.908-5.23.626-2.056.94-4.36.94-6.905v-25.68zm14.572 0h7.05v28.208h-7.05zm-1-9.577c0-1.135.422-2.123 1.264-2.964.841-.845 1.91-1.264 3.204-1.264 1.29 0 2.378.398 3.258 1.204.884.802 1.324 1.811 1.324 3.024 0 1.216-.44 2.225-1.324 3.028-.88.803-1.967 1.204-3.258 1.204-1.294 0-2.363-.42-3.204-1.264-.842-.841-1.264-1.83-1.264-2.968zm21.655 20.304a9.073 9.073 0 011.497-2.91 7.536 7.536 0 012.528-2.088c1.018-.527 2.23-.79 3.641-.79 1.41 0 2.624.263 3.645.79a7.554 7.554 0 012.524 2.088 9.08 9.08 0 011.5 2.91c.333 1.076.5 2.163.5 3.259 0 1.099-.167 2.195-.5 3.29a9.002 9.002 0 01-1.5 2.939 7.818 7.818 0 01-2.524 2.117c-1.021.548-2.234.82-3.645.82-1.41 0-2.623-.272-3.641-.82a7.798 7.798 0 01-2.528-2.117 8.995 8.995 0 01-1.497-2.938 11.186 11.186 0 01-.5-3.291c0-1.096.164-2.183.5-3.259zm-6.466 9.37c.803 1.843 1.89 3.418 3.261 4.733 1.372 1.311 2.998 2.338 4.879 3.081 1.88.746 3.878 1.12 5.992 1.12 2.117 0 4.115-.374 5.996-1.12 1.877-.743 3.503-1.77 4.875-3.081 1.372-1.315 2.459-2.89 3.261-4.732.803-1.839 1.204-3.878 1.204-6.112 0-2.231-.401-4.259-1.204-6.083-.802-1.82-1.89-3.378-3.261-4.668-1.372-1.294-2.998-2.291-4.875-2.998-1.881-.704-3.879-1.057-5.996-1.057-2.114 0-4.112.353-5.992 1.057-1.88.707-3.507 1.704-4.879 2.998-1.371 1.29-2.458 2.848-3.26 4.668-.803 1.824-1.205 3.852-1.205 6.083 0 2.234.402 4.273 1.204 6.112zM210.727 4.503h24.72v24.72z"/></symbol><symbol viewBox="0 0 30 20" id="mail" xmlns="http://www.w3.org/2000/svg"><path d="M26.93 1.52L15.052 9.093 3.27 1.519zm.357 16.83H2.946l8.35-6.343c.292-.227.357-.68.13-1.004-.227-.291-.68-.356-1.003-.13l-8.966 6.83V2.07l13.206 8.48c.259.162.583.13.81-.032l13.173-8.416v15.504l-8.772-6.732c-.323-.227-.777-.194-1.003.13a.689.689 0 00.13 1.003zM0 .808v18.224c0 .388.324.712.712.712h28.646a.718.718 0 00.712-.712V.807a.718.718 0 00-.712-.712H.712A.718.718 0 000 .807z"/></symbol><symbol viewBox="0 0 26 25" id="phone" xmlns="http://www.w3.org/2000/svg"><path d="M21.427 13.119h-.203a.71.71 0 01-.456-.861 5.57 5.57 0 00-1.418-5.672 5.672 5.672 0 00-5.773-1.367.709.709 0 01-.86-.405.709.709 0 01.433-.904l.022-.008a6.989 6.989 0 018.913 8.71.709.709 0 01-.658.507z"/><path d="M24.82 13.321h-.152a.659.659 0 01-.515-.776l.008-.034a9.318 9.318 0 00-2.532-8.204 8.963 8.963 0 00-8.102-2.228.658.658 0 01-.81-.507.658.658 0 01.506-.81 10.381 10.381 0 019.369 2.583 10.534 10.534 0 012.886 9.47.709.709 0 01-.658.506zM8.513 6.485L5.981 9.118a.708.708 0 00-.203.71 15.65 15.65 0 009.42 9.621.76.76 0 00.709-.203l2.684-2.835 5.165 3.038c-.05 1.215-.709 3.14-2.481 3.494-.866.182-1.749.267-2.633.254-9.724 0-15.497-10.686-16.864-14.737-.659-1.975-.557-3.545.304-4.811A5.673 5.673 0 015.728 1.42zm10.23 18.079a14.234 14.234 0 002.836-.304c2.684-.557 3.697-3.444 3.494-5.267a.556.556 0 00-.304-.506l-5.976-3.494a.76.76 0 00-.86.1l-2.735 2.887a14.333 14.333 0 01-7.95-8.204L9.88 7.092a.709.709 0 00.102-.81L6.69.357a.608.608 0 00-.608-.354c-1.266.1-4 1.266-5.115 2.886C-.147 4.51-.299 6.535.512 8.865c2.076 6.431 8.76 15.699 18.23 15.699z"/></symbol><symbol viewBox="0 0 19 23" id="play" xmlns="http://www.w3.org/2000/svg"><path d="M18.424 10.797c-.154-.327-.429-.535-.72-.722l-.675-.432-2.56-1.638c-1.176-.754-2.355-1.507-3.532-2.26-1.238-.79-2.473-1.583-3.71-2.373-1.034-.66-2.068-1.322-3.101-1.983L2.43.305C2.048.06 1.621-.067 1.163.037.453.197.003.849 0 1.555v19.863c0 .02.002.04.006.06.03.53.328 1.034.815 1.273a1.527 1.527 0 001.49-.061c.104-.065.207-.132.308-.2.68-.433 1.361-.87 2.042-1.304l3.285-2.101c1.24-.796 2.484-1.588 3.725-2.384 1.132-.722 2.263-1.448 3.395-2.17.762-.488 1.526-.975 2.288-1.465.16-.1.32-.205.479-.305a1.63 1.63 0 00.406-.353 1.528 1.528 0 00.185-1.61z"/></symbol><symbol viewBox="0 0 17 17" id="search" xmlns="http://www.w3.org/2000/svg"><path d="M1.388 6.613a5.225 5.225 0 1110.45 0 5.225 5.225 0 01-10.45 0zm14.685 7.9l-4.464-4.029a6.335 6.335 0 10-1.125 1.125l4.028 4.464a1.106 1.106 0 101.56-1.56z"/></symbol></svg>