<svg xmlns="http://www.w3.org/2000/svg" width="41" height="41" viewBox="0 0 41 41"><defs><clipPath id="xilpa"><path fill="#fff" d="M41 20.5C41 31.822 31.822 41 20.5 41S0 31.822 0 20.5 9.178 0 20.5 0 41 9.178 41 20.5z"/></clipPath></defs><g><g><g><path fill="none" stroke="#dbdbdb" stroke-miterlimit="20" stroke-width="2" d="M41 20.5C41 31.822 31.822 41 20.5 41S0 31.822 0 20.5 9.178 0 20.5 0 41 9.178 41 20.5z" clip-path="url(&quot;#xilpa&quot;)"/></g><g><path fill="#dbdbdb" d="M17.97 21.09l5.463 5.463c.344.343.344.893 0 1.202-.343.31-.893.344-1.202 0l-6.081-6.08c-.344-.344-.344-.894 0-1.203l6.356-6.322a.828.828 0 0 1 .618-.24c.24 0 .447.068.619.24.343.344.343.894 0 1.203z"/><path fill="none" stroke="#dbdbdb" stroke-miterlimit="20" d="M17.97 21.09v0l5.463 5.463c.344.343.344.893 0 1.202-.343.31-.893.344-1.202 0l-6.081-6.08c-.344-.344-.344-.894 0-1.203v0l6.356-6.322a.828.828 0 0 1 .618-.24c.24 0 .447.068.619.24.343.344.343.894 0 1.203z"/></g></g></g></svg>