<svg xmlns="http://www.w3.org/2000/svg" width="41" height="41" viewBox="0 0 41 41"><defs><clipPath id="6sq2a"><path fill="#fff" d="M41 20.5C41 31.822 31.822 41 20.5 41S0 31.822 0 20.5 9.178 0 20.5 0 41 9.178 41 20.5z"/></clipPath></defs><g><g><path fill="none" stroke="#eb6400" stroke-miterlimit="20" stroke-width="2" d="M41 20.5C41 31.822 31.822 41 20.5 41S0 31.822 0 20.5 9.178 0 20.5 0 41 9.178 41 20.5z" clip-path="url(&quot;#6sq2a&quot;)"/></g><g><path fill="#eb6400" d="M23.03 21.09l-5.464 5.463c-.343.343-.343.893 0 1.202.344.31.894.344 1.203 0l6.08-6.08c.345-.344.345-.894 0-1.203l-6.355-6.322a.828.828 0 0 0-.618-.24.828.828 0 0 0-.619.24c-.343.344-.343.894 0 1.203z"/><path fill="none" stroke="#eb6400" stroke-miterlimit="20" d="M23.03 21.09v0l-5.464 5.463c-.343.343-.343.893 0 1.202.344.31.894.344 1.203 0l6.08-6.08c.345-.344.345-.894 0-1.203v0l-6.355-6.322a.828.828 0 0 0-.618-.24.828.828 0 0 0-.619.24c-.343.344-.343.894 0 1.203z"/></g></g></svg>