<svg xmlns="http://www.w3.org/2000/svg" width="45" height="48" viewBox="0 0 45 48"><g><g><g><path fill="#eb6400" d="M41.94 1H18.956c-1.18 0-2.155.975-2.155 2.155v6.464h1.437V3.155c0-.41.308-.719.718-.719H41.94c.41 0 .718.308.718.719v14.364c0 .41-.308.719-.718.719H30.858l-4.514 4.514 1.026 1.026 4.104-4.104H41.94c1.18 0 2.155-.975 2.155-2.155V3.155C44.094 1.975 43.12 1 41.94 1z"/><path fill="none" stroke="#eb6400" stroke-miterlimit="20" d="M41.94 1H18.956c-1.18 0-2.155.975-2.155 2.155v6.464h1.437v0-6.464c0-.41.308-.719.718-.719H41.94c.41 0 .718.308.718.719v14.364c0 .41-.308.719-.718.719H30.858v0l-4.514 4.514v0l1.026 1.026v0l4.104-4.104v0H41.94c1.18 0 2.155-.975 2.155-2.155V3.155C44.094 1.975 43.12 1 41.94 1z"/></g><g><path fill="#eb6400" d="M26.857 11.055V9.62h1.436v1.436z"/><path fill="none" stroke="#eb6400" stroke-miterlimit="20" d="M26.857 11.055v0V9.62v0h1.436v1.436z"/></g><g><path fill="#eb6400" d="M29.73 11.055V9.62h1.436v1.436z"/><path fill="none" stroke="#eb6400" stroke-miterlimit="20" d="M29.73 11.055v0V9.62v0h1.436v1.436z"/></g><g><path fill="#eb6400" d="M32.603 11.055V9.62h1.436v1.436z"/><path fill="none" stroke="#eb6400" stroke-miterlimit="20" d="M32.603 11.055v0V9.62v0h1.436v1.436z"/></g><g><path fill="#eb6400" d="M20.239 34.603l-2.72-1.385-2.718 1.385-2.104-2.103.872-1.283 3.95.667 3.95-.667.873 1.283zm-5.592-6.002c1.385.41 2.821.41 2.873.41.05 0 1.487 0 2.873-.41v1.334l-2.873.461-2.873-.461zm-2.873-7.542V18.7l2.206-1.077 7.182 2.873 2.103-1.077v1.641c-.615 4.258-2.308 5.746-2.513 5.9-1.283.616-3.232.616-3.232.616s-1.95 0-3.233-.616c-.205-.205-1.898-1.642-2.513-5.9zm5.746-8.567c3.847 0 5.592 1.641 5.745 5.335l-2.154 1.078-7.183-2.873-2.052 1.026c.308-3.13 2.104-4.566 5.644-4.566zm6.259 19.546l-1.59-2.411-.36.051v-1.795c.667-.616 2.257-2.514 2.873-6.721v-2.976c0-4.77-2.411-7.182-7.182-7.182-4.772 0-7.183 2.411-7.183 7.182v2.976c.616 4.207 2.206 6.054 2.873 6.72v1.796l-.359-.051-1.59 2.411c-1.232.718-2.514 1.18-3.694 1.642C4.18 34.962 1 36.194 1 41.94v5.027h1.436V41.94c0-4.772 2.258-5.644 5.644-6.926 1.077-.41 2.308-.872 3.54-1.54l2.873 2.874 3.027-1.488 3.026 1.488 2.873-2.873c1.232.667 2.463 1.128 3.54 1.539 3.386 1.282 5.644 2.154 5.644 6.926v5.027h1.436V41.94c0-5.746-3.18-6.978-6.567-8.26-1.23-.462-2.462-.924-3.693-1.642z"/><path fill="none" stroke="#eb6400" stroke-miterlimit="20" d="M20.239 34.603l-2.72-1.385-2.718 1.385-2.104-2.103.872-1.283 3.95.667 3.95-.667.873 1.283zm-5.592-6.002c1.385.41 2.821.41 2.873.41.05 0 1.487 0 2.873-.41v1.334l-2.873.461-2.873-.461zm-2.873-7.542V18.7l2.206-1.077 7.182 2.873 2.103-1.077v1.641c-.615 4.258-2.308 5.746-2.513 5.9-1.283.616-3.232.616-3.232.616s-1.95 0-3.233-.616c-.205-.205-1.898-1.642-2.513-5.9zm5.746-8.567c3.847 0 5.592 1.641 5.745 5.335l-2.154 1.078-7.183-2.873-2.052 1.026c.308-3.13 2.104-4.566 5.644-4.566zm6.259 19.546l-1.59-2.411-.36.051v-1.795c.667-.616 2.257-2.514 2.873-6.721v-2.976c0-4.77-2.411-7.182-7.182-7.182-4.772 0-7.183 2.411-7.183 7.182v2.976c.616 4.207 2.206 6.054 2.873 6.72v1.796l-.359-.051-1.59 2.411c-1.232.718-2.514 1.18-3.694 1.642C4.18 34.962 1 36.194 1 41.94v5.027h1.436V41.94c0-4.772 2.258-5.644 5.644-6.926 1.077-.41 2.308-.872 3.54-1.54l2.873 2.874 3.027-1.488 3.026 1.488 2.873-2.873c1.232.667 2.463 1.128 3.54 1.539 3.386 1.282 5.644 2.154 5.644 6.926v5.027h1.436V41.94c0-5.746-3.18-6.978-6.567-8.26-1.23-.462-2.462-.924-3.693-1.642z"/></g><g><path fill="#eb6400" d="M16.801 41.221v-1.436h1.437v1.436z"/><path fill="none" stroke="#eb6400" stroke-miterlimit="20" d="M16.801 41.221v0-1.436 0h1.437v1.436z"/></g><g><path fill="#eb6400" d="M16.801 38.348v-1.436h1.437v1.436z"/><path fill="none" stroke="#eb6400" stroke-miterlimit="20" d="M16.801 38.348v0-1.436 0h1.437v1.436z"/></g><g><path fill="#eb6400" d="M6.746 46.967v-4.31h1.436v4.31z"/><path fill="none" stroke="#eb6400" stroke-miterlimit="20" d="M6.746 46.967v0-4.31 0h1.436v4.31z"/></g><g><path fill="#eb6400" d="M26.857 46.967v-4.31h1.436v4.31z"/><path fill="none" stroke="#eb6400" stroke-miterlimit="20" d="M26.857 46.967v0-4.31 0h1.436v4.31z"/></g></g></g></svg>