<?xml version="1.0" encoding="utf-8"?>
<!-- Generator: Adobe Illustrator 24.0.0, SVG Export Plug-In . SVG Version: 6.00 Build 0)  -->
<svg version="1.1" id="Ebene_1" xmlns="http://www.w3.org/2000/svg" xmlns:xlink="http://www.w3.org/1999/xlink" x="0px" y="0px"
	 viewBox="0 0 21.4 32" style="enable-background:new 0 0 21.4 32;" xml:space="preserve">
<style type="text/css">
	.st0{clip-path:url(#SVGID_2_);}
	.st1{opacity:0.874;fill:#FFFFFF;enable-background:new    ;}
	.st2{opacity:0.874;fill:#EB6400;enable-background:new    ;}
	.st3{fill:#FFFFFF;}
	.st4{fill:#EB6400;}
	.st5{opacity:0.51;fill:#EB6400;enable-background:new    ;}
	.st6{fill:#8C8C8C;}
	.st7{fill:#EB6400;stroke:#EB6400;}
</style>
<path d="M17.9,11.9c-0.2-0.3-0.6-0.4-0.9-0.5c-0.3,0-0.7,0.1-1,0.3l-5.5,5.5l-5.1-5.1c-0.5-0.5-1.3-0.5-1.9,0
	c-0.5,0.5-0.5,1.4,0,1.9l6.1,6.1c0.2,0.3,0.6,0.4,0.9,0.4c0,0,0,0,0,0c0.3,0,0.7-0.1,1-0.4l6.3-6.3c0.3-0.2,0.4-0.6,0.5-0.9
	C18.3,12.5,18.2,12.2,17.9,11.9z"/>
</svg>
