<?xml version="1.0" encoding="utf-8"?>
<!-- Generator: Adobe Illustrator 24.0.2, SVG Export Plug-In . SVG Version: 6.00 Build 0)  -->
<svg version="1.1" id="Ebene_1" xmlns="http://www.w3.org/2000/svg" xmlns:xlink="http://www.w3.org/1999/xlink" x="0px" y="0px"
	 viewBox="0 0 21.4 32" style="enable-background:new 0 0 21.4 32;" xml:space="preserve">
<path d="M6.7,8.8C6.4,9,6.3,9.4,6.2,9.7c0,0.3,0.1,0.7,0.3,1l5.5,5.5l-5.1,5.1c-0.5,0.5-0.5,1.3,0,1.9c0.5,0.5,1.4,0.5,1.9,0
	l6.1-6.1c0.3-0.2,0.4-0.6,0.4-0.9l0,0c0-0.3-0.1-0.7-0.4-1L8.6,8.9C8.4,8.6,8,8.5,7.7,8.4C7.3,8.4,7,8.5,6.7,8.8z"/>
</svg>
