<svg xmlns="http://www.w3.org/2000/svg" width="44" height="45" viewBox="0 0 44 45"><g><g><g><path fill="#eb6400" d="M21.874 22.183c.851 0 1.768-.327 2.62-.851l1.637 2.161-2.358 8.843-.524-5.568 1.31-2.358h-5.371l1.31 2.358-.524 5.568-2.358-8.712 1.572-2.227c.917.459 1.834.786 2.686.786zm-4.52-5.633v-.262l-.197-.13c-.393-.328-1.244-1.114-1.179-1.704 0-.196.066-.262.131-.262.197 0 .459-.13.59-.262.13-.13.196-.393.196-.59 0-.196-.065-.392-.065-.589v-.524c-.066-1.637.13-2.489 1.441-2.554h.393l.065-.393c0-.066.328-1.376 2.686-1.376.655 0 2.49.197 3.34.524.066 0 .328.131.787.131.13 0 .262 0 .458-.065l-.196.196-.72.72 1.047.066c.066 0 1.18.131 1.114 2.03l-.197 1.704c0 .196.066.327.131.458a.708.708 0 0 0 .459.197h.262s.065.065.065.262c0 .655-.917 1.506-1.179 1.703l-.327.393v.262c0 2.62-2.751 4.716-4.585 4.716-1.966 0-4.455-2.162-4.52-4.65zm16.9 11.004v5.11H24.69l2.358-8.712 4.782 1.113c1.179.328 2.161 1.31 2.423 2.49zm-13.297 5.11l.524-5.503h.786zm.393-6.485h1.113m-12.445 6.485c.327-6.354 1.244-7.337 2.489-7.599l4.323-.982 2.292 8.58zm2.292-8.516c-1.637.393-2.882 1.703-3.144 3.34l-.065 6.224h26.2v-6.223c-.327-1.638-1.572-2.948-3.144-3.275l-5.109-1.18-1.637-2.226c1.179-.983 2.03-2.424 2.096-3.996.458-.393 1.44-1.31 1.375-2.358 0-.851-.458-1.179-.917-1.244l.131-1.31c.066-1.703-.59-2.49-1.244-2.817.524-.72.393-1.244.327-1.375l-.196-.59-.524.393c-.852.59-1.31.328-1.376.328-1.179-.524-3.602-.655-3.733-.655-2.424 0-3.276 1.179-3.538 1.768-2.161.328-2.096 2.555-2.03 3.537v.917c-.328.066-.786.328-.852 1.18 0 1.047.983 2.03 1.376 2.357.13 1.572.982 2.948 2.096 3.93l-1.638 2.293z"/><path fill="none" stroke="#eb6400" stroke-miterlimit="20" stroke-width=".7" d="M21.874 22.183c.851 0 1.768-.327 2.62-.851l1.637 2.161-2.358 8.843-.524-5.568 1.31-2.358h-5.371l1.31 2.358-.524 5.568-2.358-8.712 1.572-2.227c.917.459 1.834.786 2.686.786zm-4.52-5.633v-.262l-.197-.13c-.393-.328-1.244-1.114-1.179-1.704 0-.196.066-.262.131-.262.197 0 .459-.13.59-.262.13-.13.196-.393.196-.59 0-.196-.065-.392-.065-.589v-.524c-.066-1.637.13-2.489 1.441-2.554h.393l.065-.393c0-.066.328-1.376 2.686-1.376.655 0 2.49.197 3.34.524.066 0 .328.131.787.131.13 0 .262 0 .458-.065l-.196.196-.72.72 1.047.066c.066 0 1.18.131 1.114 2.03l-.197 1.704c0 .196.066.327.131.458a.708.708 0 0 0 .459.197h.262s.065.065.065.262c0 .655-.917 1.506-1.179 1.703l-.327.393v.262c0 2.62-2.751 4.716-4.585 4.716-1.966 0-4.455-2.162-4.52-4.65zm16.9 11.004v5.11H24.69l2.358-8.712 4.782 1.113c1.179.328 2.161 1.31 2.423 2.49zm-13.297 5.11l.524-5.503h.786zm.393-6.485h1.113m-12.445 6.485c.327-6.354 1.244-7.337 2.489-7.599l4.323-.982 2.292 8.58zm2.292-8.516c-1.637.393-2.882 1.703-3.144 3.34l-.065 6.224h26.2v-6.223c-.327-1.638-1.572-2.948-3.144-3.275l-5.109-1.18-1.637-2.226c1.179-.983 2.03-2.424 2.096-3.996.458-.393 1.44-1.31 1.375-2.358 0-.851-.458-1.179-.917-1.244l.131-1.31c.066-1.703-.59-2.49-1.244-2.817.524-.72.393-1.244.327-1.375l-.196-.59-.524.393c-.852.59-1.31.328-1.376.328-1.179-.524-3.602-.655-3.733-.655-2.424 0-3.276 1.179-3.538 1.768-2.161.328-2.096 2.555-2.03 3.537v.917c-.328.066-.786.328-.852 1.18 0 1.047.983 2.03 1.376 2.357.13 1.572.982 2.948 2.096 3.93l-1.638 2.293z"/></g><g><path fill="#eb6400" d="M9.1 6.529C16.372.633 26.853.502 34.254 6.136l-2.75 2.423L38.313 10l-.458-7.009-2.882 2.49C27.244-.611 16.109-.48 8.446 5.808.389 12.424-1.707 24.148 3.599 33.122l.851-.524c-5.043-8.58-3.078-19.716 4.65-26.07z"/><path fill="none" stroke="#eb6400" stroke-miterlimit="20" stroke-width=".7" d="M9.1 6.529C16.372.633 26.853.502 34.254 6.136l-2.75 2.423v0L38.313 10v0l-.458-7.009v0l-2.882 2.49C27.244-.611 16.109-.48 8.446 5.808.389 12.424-1.707 24.148 3.599 33.122l.851-.524c-5.043-8.58-3.078-19.716 4.65-26.07z"/></g><g><path fill="#eb6400" d="M39.886 11.834l-.851.459c5.043 8.515 3.078 19.716-4.65 26.004-7.271 5.96-17.752 6.091-25.153.393l2.75-2.424-6.811-1.31.458 6.943 2.882-2.489a21.35 21.35 0 0 0 13.035 4.454c4.782 0 9.563-1.572 13.493-4.781 8.057-6.616 10.153-18.34 4.847-27.249z"/><path fill="none" stroke="#eb6400" stroke-miterlimit="20" stroke-width=".7" d="M39.886 11.834v0l-.851.459c5.043 8.515 3.078 19.716-4.65 26.004-7.271 5.96-17.752 6.091-25.153.393l2.75-2.424v0l-6.811-1.31v0l.458 6.943v0l2.882-2.489a21.35 21.35 0 0 0 13.035 4.454c4.782 0 9.563-1.572 13.493-4.781 8.057-6.616 10.153-18.34 4.847-27.249z"/></g></g></g></svg>