<svg xmlns="http://www.w3.org/2000/svg" width="26" height="28" viewBox="0 0 26 28"><g><g><g><path fill="#eb6400" d="M23.928 26.156H2.292c-.121 0-.22-.113-.22-.253v-7.181h21.856zM6.21 7.492h8.86c.278 0 .51-.245.533-.563.091-1.208.644-4.64 1.95-4.699.29.053 2.238.495 2.238 2.786v12.476H6.21zM2.072 4.37c.304-.493 1.425-2.14 2.82-2.14h10.87a10.975 10.975 0 0 0-1.17 4.032H2.072zm18.79 13.122V5.016c0-2.809-2.089-3.85-3.201-4.01A.467.467 0 0 0 17.588 1H4.892c-2.23 0-3.746 2.739-3.81 2.856A.685.685 0 0 0 1 4.182v2.695c0 .34.24.615.536.615H5.14v10H1.536c-.296 0-.536.276-.536.615v7.796c.001.819.58 1.482 1.292 1.483h22.172c.297 0 .536-.276.536-.615v-8.664c0-.34-.24-.615-.535-.615z"/><path fill="none" stroke="#eb6400" stroke-miterlimit="20" stroke-width=".2" d="M23.928 26.156H2.292c-.121 0-.22-.113-.22-.253v-7.181h21.856zM6.21 7.492h8.86c.278 0 .51-.245.533-.563.091-1.208.644-4.64 1.95-4.699.29.053 2.238.495 2.238 2.786v12.476H6.21zM2.072 4.37c.304-.493 1.425-2.14 2.82-2.14h10.87a10.975 10.975 0 0 0-1.17 4.032H2.072zm18.79 13.122V5.016c0-2.809-2.089-3.85-3.201-4.01A.467.467 0 0 0 17.588 1H4.892c-2.23 0-3.746 2.739-3.81 2.856A.685.685 0 0 0 1 4.182v2.695c0 .34.24.615.536.615H5.14v10H1.536c-.296 0-.536.276-.536.615v7.796c.001.819.58 1.482 1.292 1.483h22.172c.297 0 .536-.276.536-.615v-8.664c0-.34-.24-.615-.535-.615z"/></g><g><path fill="#eb6400" d="M2.865 22.186a1 1 0 0 0 1 1h19.31a1 1 0 1 0 0-2H3.865a1 1 0 0 0-1 1z"/><path fill="none" stroke="#eb6400" stroke-miterlimit="20" stroke-width=".2" d="M2.865 22.186a1 1 0 0 0 1 1h19.31a1 1 0 1 0 0-2H3.865a1 1 0 0 0-1 1z"/></g><g><path fill="#eb6400" d="M8.788 21.186H5.24a1 1 0 1 0 0 2h3.55a1 1 0 0 0 0-2z"/><path fill="none" stroke="#eb6400" stroke-miterlimit="20" stroke-width=".2" d="M8.788 21.186H5.24a1 1 0 1 0 0 2h3.55a1 1 0 0 0 0-2z"/></g></g></g></svg>