<svg xmlns="http://www.w3.org/2000/svg" width="47" height="47" viewBox="0 0 47 47"><g><g><g><path fill="#eb6400" d="M42.287 30.545c-.343 1.668-1.324 3.14-2.648 4.218l-5.101 3.973h-6.916l.785-5.297c.147-.834.54-1.57 1.177-2.109l6.916-6.033a.813.813 0 0 1 1.03 0c.294.246.343.687.147 1.03L36.45 28.29c-.49.736-1.03 1.423-1.717 2.06l-1.913 1.766c-.392.392-.441 1.03-.049 1.422.393.392 1.03.442 1.423.05l1.912-1.767a14.009 14.009 0 0 0 2.06-2.452l1.227-1.962c.637-1.03.539-2.354-.197-3.237l3.335-5.051c.344-.54 1.03-.638 1.57-.344.392.245.588.736.49 1.226zm-14.812 13.93v-3.728h6.376v3.727zm17.706-27.417c-1.471-.932-3.335-.49-4.316.932l-3.433 5.15a3.095 3.095 0 0 0-2.306.637L28.26 29.76a5.645 5.645 0 0 0-1.815 3.335l-.932 6.327v6.032c0 .54.442 1.03 1.03 1.03h8.387c.54 0 1.03-.441 1.03-1.03v-5.248l5.003-3.923c1.717-1.325 2.894-3.237 3.384-5.346l2.305-10.594c.196-1.275-.343-2.6-1.471-3.286z"/></g><g><path fill="#eb6400" d="M12.86 44.474v-3.727h6.376v3.727zm-5.788-9.76c-1.324-1.03-2.305-2.55-2.648-4.218L2.119 19.951c-.099-.49.098-.932.49-1.226a1.12 1.12 0 0 1 1.57.344l3.335 5.051a2.804 2.804 0 0 0-.197 3.237l1.227 1.962c.588.932 1.275 1.717 2.06 2.452l1.912 1.766c.393.392 1.03.343 1.423-.049.392-.392.343-1.03-.05-1.422L11.978 30.3a10.086 10.086 0 0 1-1.717-2.06l-1.226-1.962c-.196-.343-.147-.784.147-1.03a.813.813 0 0 1 1.03 0l6.916 6.033c.637.54 1.03 1.324 1.177 2.109l.833 5.297h-6.964zm13.194-1.618c-.197-1.276-.834-2.502-1.815-3.335l-6.916-5.984a2.804 2.804 0 0 0-2.305-.638l-3.433-5.15c-.932-1.422-2.845-1.814-4.316-.931-1.128.686-1.668 2.06-1.422 3.335l2.305 10.594c.441 2.109 1.667 4.021 3.384 5.346l5.003 3.923v5.248c0 .54.441 1.03 1.03 1.03h8.386c.54 0 1.03-.441 1.03-1.03v-6.18z"/></g><g><path fill="#eb6400" d="M23.355 22.992c-5.787 0-10.495-4.708-10.495-10.496 0-5.787 4.708-10.495 10.495-10.495 5.788 0 10.496 4.708 10.496 10.495 0 5.788-4.708 10.496-10.496 10.496zm12.507-10.496A12.496 12.496 0 0 0 23.355-.01 12.496 12.496 0 0 0 10.85 12.496c0 6.916 5.591 12.556 12.506 12.556 6.916 0 12.507-5.64 12.507-12.556z"/></g><g><path fill="#eb6400" d="M23.846 17.205c-1.275 0-2.354-.834-2.747-2.011h2.894a.422.422 0 0 0 .392-.392v-1.227a.422.422 0 0 0-.392-.392h-3.04V11.81h3.04a.422.422 0 0 0 .392-.393v-1.226a.422.422 0 0 0-.392-.392h-2.894c.393-1.128 1.423-2.011 2.698-2.011.736 0 1.471.294 2.01.834.246.245.491.588.638.883.098.196.295.245.49.196l1.178-.344c.245-.049.343-.294.245-.54A5.197 5.197 0 0 0 27.28 7.2a4.825 4.825 0 0 0-3.433-1.422c-2.403 0-4.365 1.717-4.807 4.022h-1.275a.422.422 0 0 0-.392.392v1.226c0 .197.196.393.392.393h1.177v1.373h-1.177a.422.422 0 0 0-.392.392v1.227c0 .196.196.392.392.392h1.275c.393 2.256 2.404 4.022 4.807 4.022 2.01 0 3.776-1.226 4.512-3.09.098-.196 0-.49-.245-.54l-1.177-.343a.466.466 0 0 0-.49.196 2.814 2.814 0 0 1-2.6 1.766z"/></g></g></g></svg>