<svg xmlns="http://www.w3.org/2000/svg" width="50" height="44" viewBox="0 0 50 44"><g><g><g><path fill="#eb6400" d="M4.688 34.04a4.688 4.688 0 0 1 3.64 1.741l3.022-1.714a8.56 8.56 0 0 0-.595 2.133l-1.661.942c.184.508.28 1.044.281 1.585a4.687 4.687 0 1 1-4.688-4.688zm36.875 1.885a4.688 4.688 0 0 1 3.75-1.886 4.687 4.687 0 1 1-4.468 3.275l-2.234-1.312a8.094 8.094 0 0 0-.753-2.255zm-16.868-6.47c-.843 0-1.526.684-1.526 1.526 0 .444.195.832.518 1.118.025.03.386.286.224.79l-1.258 6.897 2.042 1.053 2.085-1.04-1.236-6.91c-.164-.61.215-.79.215-.79.293-.283.461-.7.461-1.118 0-.842-.682-1.526-1.525-1.526zM18.87 14.26c.337-.09.72.206.717.555 0 .275.033.286.162.358.13.072.424.128.782.128h6.25c1.747 0 3.125 1.501 3.125 3.32V23.7c-.044 1.438-.747 2.616-1.758 3.452.014 1.253.437 1.908 1.172 2.475.747.578 1.844 1.01 2.994 1.495 1.15.486 2.375 1.033 3.32 2.05.944 1.019 1.562 2.483 1.562 4.56v.39l-.326.128c-8.936 5.16-16.34 4.624-24.347 0l-.327-.128v-.39c-.001-2.127.611-3.604 1.563-4.657.951-1.053 2.189-1.651 3.353-2.148 1.166-.499 2.269-.933 3.028-1.496.64-.476 1.024-.993 1.138-1.889-.97-.775-1.661-2.037-1.788-3.842v-3.028a2.25 2.25 0 0 1-1.044-1.886v-3.973a.585.585 0 0 1 .424-.552zm26.444-3.137a4.687 4.687 0 1 1-3.693 7.572L31.363 24.51c.046-.248.095-.497.104-.762v-1.093l9.411-5.337a4.72 4.72 0 0 1-.253-1.508 4.687 4.687 0 0 1 4.688-4.687zm-40.626 0a4.687 4.687 0 0 1 4.688 4.687c-.002.375-.048.75-.14 1.114l8.692 5.108v1.722l.003.055.006.043-9.327-5.48a4.688 4.688 0 0 1-3.921 2.126 4.687 4.687 0 1 1 0-9.375zm24.479-5.728a4.686 4.686 0 0 1-3.907 4.62v3.723h-1.562v-3.73a4.687 4.687 0 0 1-3.906-4.613 4.687 4.687 0 1 1 9.375 0z"/></g></g></g></svg>