<svg xmlns="http://www.w3.org/2000/svg" width="31" height="20" viewBox="0 0 31 20"><g><g><path fill="#fff" d="M11.347 11.525L1.17 19.941c.123.03.245.059.378.059h27.92c.133 0 .254-.028.378-.059l-10.178-8.416-2.494 2.222a2.508 2.508 0 0 1-3.333 0zm19.61-10.083l-10.142 9.055 10.142 8.392c.035-.128.059-.263.059-.402V1.844c0-.139-.024-.274-.06-.402zm-30.898 0a1.504 1.504 0 0 0-.06.402v16.643c0 .14.024.274.06.402L10.2 10.497zm1.49-1.11a1.54 1.54 0 0 0-.39.058l13.687 12.234c.322.288 1.002.288 1.324 0L29.858.39a1.546 1.546 0 0 0-.39-.059z"/></g></g></svg>