<svg xmlns="http://www.w3.org/2000/svg" width="30" height="20" viewBox="0 0 30 20"><g><g><path fill="#fff" d="M26.93 1.52L15.052 9.093 3.27 1.519zm.357 16.83H2.946l8.35-6.343c.292-.227.357-.68.13-1.004-.227-.291-.68-.356-1.003-.13l-8.966 6.83V2.07l13.206 8.48c.259.162.583.13.81-.032l13.173-8.416v15.504l-8.772-6.732c-.323-.227-.777-.194-1.003.13a.689.689 0 0 0 .13 1.003zM0 .808v18.224c0 .388.324.712.712.712h28.646a.718.718 0 0 0 .712-.712V.807a.718.718 0 0 0-.712-.712H.712A.718.718 0 0 0 0 .807z"/></g></g></svg>