<svg xmlns="http://www.w3.org/2000/svg" width="37" height="51" viewBox="0 0 37 51"><g><g><g><g><path fill="#eb6400" d="M25.395 14.44l-6.11 9.6a.872.872 0 0 1-.68.401h-.052a.873.873 0 0 1-.672-.314l-4.364-5.236a.874.874 0 0 1 1.344-1.117l3.596 4.363 5.471-8.596a.873.873 0 0 1 1.467.943zm11.232 3.273l-4.861-4.853V5.992a.873.873 0 0 0-.873-.873h-6.869L19.172.26a.873.873 0 0 0-1.234-.006l-.005.005L13.08 5.12H6.212a.873.873 0 0 0-.872.873v6.868L.479 17.713a.873.873 0 0 0-.006 1.234l.006.005 4.86 4.852v6.868c0 .482.392.873.873.873h6.869l4.852 4.861a.873.873 0 0 0 1.234.005l.005-.005 4.852-4.86h6.869a.873.873 0 0 0 .873-.874v-6.868l4.86-4.852a.873.873 0 0 0 .006-1.234z"/></g><g><path fill="#eb6400" d="M25.281 34.32l-.776-.776-1.24 1.23.166.166-12.733 12.707V43.58a.873.873 0 0 0-.873-.873h-4.04l7.994-7.994-1.23-1.23-9.487 9.477a.872.872 0 0 0-.218.952c.133.325.45.539.803.54h5.306v5.298c.001.353.215.67.54.803a.872.872 0 0 0 .951-.183l14.837-14.836a.873.873 0 0 0 .005-1.235l-.005-.005z"/></g><g><path fill="#eb6400" d="M34.008 42.96l-6.981-6.981a2.489 2.489 0 0 1-.541.785l-.568.576 5.341 5.341h-4.04a.873.873 0 0 0-.873.873v4.067l-5.341-5.341-1.24 1.23 6.834 6.834a.872.872 0 0 0 .951.183.873.873 0 0 0 .541-.803v-5.271h5.298a.873.873 0 0 0 .803-.541.872.872 0 0 0-.184-.952z"/></g></g></g></g></svg>