<svg xmlns="http://www.w3.org/2000/svg" width="154" height="43" viewBox="0 0 154 43"><g><g><g><g><path fill="#fff" d="M46.784 6.665h3.14l2.414 8.305h.047l2.486-8.305h3.093l2.512 8.305h.047l2.466-8.305h3.016l-4.008 11.59h-2.943l-2.636-8.112h-.047l-2.606 8.113h-2.948z"/></g><g><path fill="#fff" d="M70.435 11.074a3.74 3.74 0 0 1 .615-1.196 3.18 3.18 0 0 1 1.039-.86c.418-.217.922-.324 1.5-.324.576 0 1.076.107 1.499.325.414.218.76.504 1.038.859.273.354.479.752.615 1.196.133.44.205.889.205 1.337 0 .453-.072.906-.205 1.354a3.695 3.695 0 0 1-.615 1.205 3.326 3.326 0 0 1-1.038.872c-.423.226-.923.337-1.5.337s-1.08-.11-1.5-.337a3.326 3.326 0 0 1-1.038-.872 3.696 3.696 0 0 1-.615-1.205 4.499 4.499 0 0 1 0-2.692zm-2.653 3.854a5.892 5.892 0 0 0 1.337 1.94 6.045 6.045 0 0 0 2.008 1.268 6.665 6.665 0 0 0 2.461.462c.868 0 1.692-.159 2.461-.462a6.045 6.045 0 0 0 2.008-1.269 5.956 5.956 0 0 0 1.337-1.94c.334-.76.5-1.597.5-2.516 0-.914-.166-1.751-.5-2.5a5.91 5.91 0 0 0-1.337-1.917 5.966 5.966 0 0 0-2.008-1.235 7.015 7.015 0 0 0-2.46-.432c-.868 0-1.693.146-2.462.432a5.966 5.966 0 0 0-2.008 1.235 5.845 5.845 0 0 0-1.337 1.918c-.333.748-.5 1.585-.5 2.5 0 .918.167 1.755.5 2.516z"/></g><g><path fill="#fff" d="M82.594 6.665h2.777v1.931h.052a4.237 4.237 0 0 1 1.35-1.64c.58-.42 1.256-.629 2.029-.629.111 0 .235.005.359.013.132.009.243.026.342.06v2.657a3.72 3.72 0 0 0-.496-.098 3.22 3.22 0 0 0-.402-.026c-.657 0-1.187.124-1.593.364a2.944 2.944 0 0 0-.94.871c-.226.338-.38.684-.457 1.038-.081.355-.124.633-.124.842v6.208h-2.897z"/></g><g><path fill="#fff" d="M91.75 0h2.897v11.544h.072l4.396-4.88h3.717l-5.024 5.243 5.336 6.349h-3.836l-4.589-5.939h-.072v5.939H91.75z"/></g><g><path fill="#fff" d="M105.297 6.665h2.897v11.59h-2.897zm-.41-3.935c0-.47.171-.871.517-1.222.346-.346.786-.517 1.316-.517s.978.163 1.342.496c.363.329.542.743.542 1.243 0 .5-.18.914-.542 1.243-.364.33-.812.496-1.342.496s-.97-.175-1.316-.521a1.665 1.665 0 0 1-.517-1.218z"/></g><g><path fill="#fff" d="M111.5 6.665h2.757v1.863h.047c.26-.581.704-1.094 1.341-1.538.637-.44 1.389-.663 2.256-.663.756 0 1.405.133 1.944.398.542.265.982.615 1.328 1.05.346.436.599.936.76 1.5.163.564.244 1.141.244 1.735v7.246h-2.896v-6.422c0-.337-.026-.692-.073-1.063a2.92 2.92 0 0 0-.316-1 2.089 2.089 0 0 0-.666-.74c-.282-.192-.654-.29-1.12-.29-.465 0-.871.094-1.209.278a2.605 2.605 0 0 0-.833.713c-.218.29-.38.624-.491 1.004-.116.376-.171.76-.171 1.145v6.375H111.5z"/></g><g><path fill="#fff" d="M130.846 8.694c.53 0 1.004.099 1.427.29a3.18 3.18 0 0 1 1.072.795c.3.334.53.727.688 1.18.162.448.244.918.244 1.418 0 .478-.082.944-.244 1.384-.158.44-.389.833-.688 1.167-.299.337-.662.606-1.085.807-.427.2-.906.3-1.44.3-.512 0-.978-.103-1.388-.313a3.184 3.184 0 0 1-1.038-.829 3.867 3.867 0 0 1-.65-1.17 3.979 3.979 0 0 1-.23-1.346c0-.513.076-.995.23-1.444.154-.449.368-.837.65-1.17a3.101 3.101 0 0 1 1.038-.778c.41-.192.884-.29 1.414-.29zm3.43-2.03v1.74h-.05a3.828 3.828 0 0 0-1.688-1.568 5.212 5.212 0 0 0-2.294-.509c-.872 0-1.658.158-2.354.483a5.392 5.392 0 0 0-1.79 1.303 5.762 5.762 0 0 0-1.133 1.931 6.987 6.987 0 0 0-.397 2.367c0 .825.132 1.602.406 2.333.273.73.658 1.371 1.15 1.918a5.34 5.34 0 0 0 1.798 1.303c.709.325 1.495.483 2.367.483.803 0 1.533-.15 2.183-.449a4.114 4.114 0 0 0 1.61-1.307h.047v.85c0 .581-.064 1.115-.18 1.598a3.297 3.297 0 0 1-.606 1.26 2.834 2.834 0 0 1-1.136.838c-.474.2-1.055.303-1.752.303-.722 0-1.44-.14-2.145-.423a6.01 6.01 0 0 1-1.91-1.217l-1.665 2.243c.371.307.79.58 1.256.82a9.15 9.15 0 0 0 1.46.607 10.217 10.217 0 0 0 3.03.483c1.128 0 2.102-.163 2.922-.483.82-.325 1.5-.778 2.042-1.363.539-.59.936-1.303 1.197-2.15.256-.845.384-1.794.384-2.84V6.665z"/></g><g><path fill="#fff" d="M48.424 30.261h2.752v1.858h.05c.257-.58.706-1.093 1.342-1.533.633-.44 1.389-.663 2.256-.663.756 0 1.406.133 1.944.398.543.265.983.615 1.329 1.05.346.437.598.932.76 1.496.163.564.24 1.145.24 1.739v7.246H56.2v-6.426c0-.333-.026-.692-.069-1.064a3.014 3.014 0 0 0-.316-1 2.142 2.142 0 0 0-.662-.734c-.282-.192-.658-.29-1.123-.29-.47 0-.872.089-1.21.277a2.593 2.593 0 0 0-.833.71c-.218.29-.38.623-.495 1.003-.116.38-.167.765-.167 1.15v6.374h-2.9z"/></g><g><path fill="#fff" d="M64.292 34.896c.064-.82.397-1.495 1.004-2.016.602-.526 1.337-.786 2.208-.786.466 0 .872.077 1.218.23.346.154.632.36.859.616.226.26.389.555.491.893.107.337.158.696.158 1.063zm8.835 1.303c0-1.046-.141-1.96-.419-2.738-.282-.782-.675-1.431-1.175-1.957a4.829 4.829 0 0 0-1.773-1.183 6.137 6.137 0 0 0-2.23-.398c-.872 0-1.683.146-2.43.445-.749.299-1.398.717-1.945 1.256a5.767 5.767 0 0 0-1.29 1.957c-.312.764-.47 1.614-.47 2.55 0 .949.158 1.794.47 2.542a5.313 5.313 0 0 0 1.303 1.897c.555.517 1.21.914 1.97 1.196.756.282 1.585.423 2.486.423 2.175 0 3.832-.773 4.973-2.32l-1.931-1.546c-.32.47-.735.837-1.23 1.102-.5.265-1.111.397-1.838.397a3.38 3.38 0 0 1-1.204-.217 3.641 3.641 0 0 1-1.039-.59 2.962 2.962 0 0 1-.739-.893 2.935 2.935 0 0 1-.324-1.15h8.813a2.9 2.9 0 0 0 .022-.384V36.2z"/></g><g><path fill="#fff" d="M78.706 35.691l-4.178-5.43h3.482l2.508 3.597 2.585-3.597h3.332l-4.153 5.43 4.734 6.16h-3.529l-3.016-4.225-3.042 4.226H74z"/></g><g><path fill="#fff" d="M87.909 32.577V30.26h2.03v-3.358h2.85v3.358h2.896v2.316h-2.897v5.387c0 .517.09.94.278 1.282.183.337.598.504 1.243.504.192 0 .402-.017.628-.06.227-.038.427-.098.602-.18l.099 2.27c-.26.097-.564.17-.919.23a6.54 6.54 0 0 1-1.012.081c-.774 0-1.402-.107-1.884-.325-.483-.213-.868-.512-1.145-.893a3.256 3.256 0 0 1-.581-1.303 7.425 7.425 0 0 1-.159-1.58v-5.413z"/></g><g><path fill="#fff" d="M104.016 23.596h2.9v18.256h-2.9z"/></g><g><path fill="#fff" d="M112.492 34.896c.064-.82.397-1.495 1.004-2.016.602-.526 1.337-.786 2.209-.786.466 0 .871.077 1.217.23.347.154.633.36.86.616.221.26.388.555.495.893.107.337.158.696.158 1.063zm8.84 1.303c0-1.046-.142-1.96-.423-2.738-.282-.782-.671-1.431-1.171-1.957a4.846 4.846 0 0 0-1.777-1.183 6.127 6.127 0 0 0-2.235-.398 6.46 6.46 0 0 0-2.422.445c-.752.299-1.402.717-1.944 1.256a5.838 5.838 0 0 0-1.295 1.957c-.316.764-.47 1.614-.47 2.55 0 .949.154 1.794.47 2.542a5.367 5.367 0 0 0 1.303 1.897 5.858 5.858 0 0 0 1.97 1.196c.756.282 1.585.423 2.486.423 2.175 0 3.833-.773 4.978-2.32l-1.936-1.546c-.32.47-.73.837-1.23 1.102-.5.265-1.11.397-1.833.397-.423 0-.824-.072-1.209-.217a3.7 3.7 0 0 1-1.038-.59 2.948 2.948 0 0 1-.735-.893 2.868 2.868 0 0 1-.329-1.15h8.814c.017-.127.026-.256.026-.384V36.2z"/></g><g><path fill="#fff" d="M122.297 30.261h3.162l3.046 8.45h.047l3.067-8.45h3.063l-4.61 11.59h-3.088z"/></g><g><path fill="#fff" d="M138.502 34.896c.06-.82.397-1.495 1.004-2.016.598-.526 1.337-.786 2.209-.786.465 0 .871.077 1.217.23.346.154.633.36.86.616.221.26.388.555.49.893.107.337.159.696.159 1.063zm8.835 1.303c0-1.046-.14-1.96-.418-2.738-.283-.782-.676-1.431-1.175-1.957a4.864 4.864 0 0 0-1.773-1.183 6.144 6.144 0 0 0-2.235-.398c-.867 0-1.679.146-2.427.445-.747.299-1.397.717-1.943 1.256a5.84 5.84 0 0 0-1.295 1.957c-.312.764-.466 1.614-.466 2.55 0 .949.154 1.794.466 2.542a5.377 5.377 0 0 0 1.307 1.897c.556.517 1.21.914 1.97 1.196.756.282 1.585.423 2.486.423 2.17 0 3.833-.773 4.973-2.32l-1.93-1.546c-.321.47-.736.837-1.235 1.102-.496.265-1.107.397-1.833.397-.419 0-.82-.072-1.205-.217a3.642 3.642 0 0 1-1.038-.59 2.962 2.962 0 0 1-.74-.893 2.864 2.864 0 0 1-.324-1.15h8.814c.013-.127.021-.256.021-.384V36.2z"/></g><g><path fill="#fff" d="M150.238 23.596h2.897v18.256h-2.897z"/></g></g><g><path fill="#fff" d="M-.096 6.425h35.267V41.69z"/></g></g></g></svg>