<svg xmlns="http://www.w3.org/2000/svg" width="20" height="28" viewBox="0 0 20 28"><g><g><path fill="#fff" d="M19.225 23.605l-3.404-4.06c-.82-.886-1.767-1.245-2.903-.66l-1.137.608c-.631.323-.636.51-.87.87-.609.95-1.428.735-1.815.324-1.638-1.745-3.678-5.668-3.697-5.704-.684-1.331-1.101-2.725-1.346-4.109-.092-.556.193-1.344 1.32-1.289.431.022.584.126 1.216-.199l1.156-.572c1.136-.582 1.397-1.56 1.154-2.743L7.583.94A1.93 1.93 0 0 0 4.992.087L2.525 1.328c-.427.216-.825.66-1.083 1.167-2.081 3.517-1.96 9.06.693 14.222.097.192 4.16 10.082 12.251 10.974.562.086 1.152.022 1.577-.201l2.448-1.281a1.93 1.93 0 0 0 .814-2.604z"/></g></g></svg>