<svg xmlns="http://www.w3.org/2000/svg" width="19" height="23" viewBox="0 0 19 23"><g><g><path fill="#fff" d="M18.424 10.797c-.154-.327-.429-.535-.72-.722l-.675-.432-2.56-1.638c-1.176-.754-2.355-1.507-3.532-2.26-1.238-.79-2.473-1.583-3.71-2.373-1.034-.66-2.068-1.322-3.101-1.983L2.43.305C2.048.06 1.621-.067 1.163.037.453.197.003.849 0 1.555v19.863c0 .02.002.04.006.06.03.53.328 1.034.815 1.273a1.527 1.527 0 0 0 1.49-.061c.104-.065.207-.132.308-.2.68-.433 1.361-.87 2.042-1.304l3.285-2.101c1.24-.796 2.484-1.588 3.725-2.384 1.132-.722 2.263-1.448 3.395-2.17.762-.488 1.526-.975 2.288-1.465.16-.1.32-.205.479-.305a1.63 1.63 0 0 0 .406-.353 1.528 1.528 0 0 0 .185-1.61z"/></g></g></svg>