<svg xmlns="http://www.w3.org/2000/svg" width="41" height="44" viewBox="0 0 41 44"><g><g><g><path fill="#eb6400" d="M34.728 6.613C30.855 2.74 25.77.622 20.325.622c-3.934 0-7.686 1.09-10.954 3.207-.726.424-.908 1.392-.484 2.118.424.727 1.392.908 2.118.485 2.784-1.755 5.991-2.724 9.32-2.724 9.561 0 17.368 7.807 17.368 17.369 0 9.561-7.807 17.368-17.368 17.368a18.59 18.59 0 0 1-3.208-.303l.848-1.694c.423-.787-.182-1.755-1.09-1.695l-7.443.242c-.969.061-1.453 1.09-.908 1.877l4.357 6.051c.545.726 1.634.605 1.997-.181l.908-1.816c1.513.363 3.026.545 4.6.545 5.446 0 10.53-2.118 14.402-5.991 3.873-3.873 5.991-8.957 5.991-14.403-.06-5.507-2.178-10.59-6.051-14.464z"/></g><g><path fill="#eb6400" d="M20.325 5.524c-.848 0-1.513.665-1.513 1.513V21.5s0 .06.06.06c0 0 0 .061.06.061 0 0 0 .06.061.06 0 0 0 .061.06.061l.061.06s0 .061.06.061l.061.06.06.061.061.06.061.061 7.988 5.992c.303.181.605.302.908.302.484 0 .908-.181 1.21-.605.484-.666.363-1.634-.302-2.118l-7.383-5.568V7.037c0-.847-.666-1.513-1.513-1.513z"/></g><g><path fill="#eb6400" d="M2.614 11.625a1.452 1.452 0 1 1 2.904 0 1.452 1.452 0 0 1-2.904 0z"/></g><g><path fill="#eb6400" d="M.052 21.016a1.452 1.452 0 1 1 2.904 0 1.452 1.452 0 0 1-2.904 0z"/></g><g><path fill="#eb6400" d="M2.58 30.4a1.452 1.452 0 1 1 2.904 0 1.452 1.452 0 0 1-2.905 0z"/></g></g></g></svg>