<svg xmlns="http://www.w3.org/2000/svg" width="17" height="20" viewBox="0 0 17 20"><g><g><path fill="#fff" d="M16.856.621L10.51 11.838v.016l4.033 7.385c.093.154.099.299.016.434-.072.123-.202.186-.388.186h-2.854c-.331 0-.6-.182-.807-.543-2.7-4.954-4.054-7.442-4.064-7.463L12.822.543c.197-.362.45-.543.76-.543h2.902c.176 0 .3.062.373.187.083.124.083.269-.001.434zM3.312 13.917H.442a.408.408 0 0 1-.372-.202.373.373 0 0 1 0-.435l3.04-5.367v-.015L1.172 4.546c-.083-.176-.087-.326-.015-.45.083-.114.217-.17.404-.17h2.854c.32 0 .59.175.806.527a373.222 373.222 0 0 1 1.956 3.445l-3.088 5.46c-.196.372-.455.56-.776.56z"/></g></g></svg>