<svg xmlns="http://www.w3.org/2000/svg" width="128" height="44" viewBox="0 0 128 44"><g><g><path fill="none" stroke="#000" stroke-miterlimit="20" stroke-width="4" d="M106.323 2c10.437.348 18.818 8.728 19.166 19.166.365 10.951-8.216 20.124-19.166 20.49a19.782 19.782 0 0 1-14.549-5.66 19.785 19.785 0 0 0 5.94-14.83 19.787 19.787 0 0 0-5.94-13.506A19.767 19.767 0 0 1 105 2zM91.774 35.995a19.769 19.769 0 0 1-13.226 5.66A19.782 19.782 0 0 1 64 35.996a19.785 19.785 0 0 0 5.94-14.829A19.787 19.787 0 0 0 64 7.66 19.767 19.767 0 0 1 77.226 2h1.322a19.783 19.783 0 0 1 13.226 5.66 19.785 19.785 0 0 0-5.94 14.829 19.771 19.771 0 0 0 5.94 13.506zm-27.774 0a19.769 19.769 0 0 1-13.226 5.66 19.782 19.782 0 0 1-14.548-5.66 19.785 19.785 0 0 0 5.94-14.829 19.787 19.787 0 0 0-5.94-13.506A19.767 19.767 0 0 1 49.452 2h1.322A19.783 19.783 0 0 1 64 7.66a19.785 19.785 0 0 0-5.94 14.829A19.771 19.771 0 0 0 64 35.995zM30.285 22.49a19.785 19.785 0 0 1 5.94-14.83A19.783 19.783 0 0 0 23 2h-1.323c-10.95.365-19.531 9.538-19.166 20.489C2.876 33.439 12.05 42.02 23 41.656a19.769 19.769 0 0 0 13.226-5.66 19.771 19.771 0 0 1-5.94-13.507z"/></g></g></svg>