<svg xmlns="http://www.w3.org/2000/svg" width="180" height="26" viewBox="0 0 180 26"><g><g><path d="M170.191 1.009c3.798 0 6.378.563 7.75 1.69C179.314 3.824 180 5.878 180 8.857c0 2.064-.304 3.606-.918 4.612-.609 1.01-1.634 1.685-3.067 2.026 1.264.3 2.213.833 2.844 1.59.633.762.95 1.75.95 2.965v4.902h-7.32v-3.65c0-.946-.217-1.592-.66-1.943-.446-.358-1.325-.534-2.629-.534h-10.908v6.127h-7.334V1.01h19.233m-.276 5.965h-11.623v5.852h11.623c.98 0 1.667-.225 2.054-.682.389-.454.587-1.277.587-2.47 0-.944-.206-1.63-.626-2.058-.415-.427-1.091-.642-2.015-.642zm-22.277-.13h-18.86v3.622h17.767v5.032h-17.768v3.662h19.153v5.791h-26.452V1.01h26.16zm-39.377 18.107h-7.298V6.875H90.945V1.009h27.335v5.866H108.26zm-30.893 0H70.07V6.875H60.053V1.009h27.335v5.866h-10.02zM44.14 19.26c2.586 0 4.299-.327 5.15-.972.845-.65 1.267-1.856 1.267-3.612v-3.39c0-1.758-.422-2.963-1.268-3.614-.85-.646-2.563-.97-5.15-.97h-4.674c-2.64 0-4.368.33-5.188.98-.817.656-1.231 1.896-1.231 3.728v3.332c0 1.723.436 2.907 1.295 3.55.864.64 2.582.968 5.154.968zm-6.628 5.984c-2.79 0-4.837-.129-6.139-.38-1.295-.253-2.35-.68-3.167-1.295a5.752 5.752 0 0 1-1.993-2.69c-.406-1.114-.606-2.586-.606-4.418V9.93c0-2.001.2-3.592.606-4.757.407-1.169 1.073-2.097 1.993-2.782.807-.605 1.877-1.032 3.21-1.29 1.337-.259 3.356-.385 6.065-.385h8.61c2.72 0 4.753.126 6.102.385 1.342.258 2.412.685 3.203 1.29.889.675 1.545 1.597 1.958 2.766.408 1.17.618 2.664.618 4.485v6.673c0 1.845-.21 3.343-.618 4.495-.413 1.152-1.069 2.07-1.958 2.757-.8.615-1.864 1.042-3.183 1.294-1.318.252-3.358.381-6.123.381zM7.318 19.16h15.935v5.791H0V1.01h7.318z"/></g></g></svg>