<svg xmlns="http://www.w3.org/2000/svg" width="205" height="46" viewBox="0 0 205 46"><g><g><g><path fill="#20231e" d="M23.913 27.03H.92V1.565h22.993zm-22.179-.817H23.1V2.38H1.734z"/></g><g><path fill="#d5d5d5" d="M.918 45.338V33.129H204.66v12.209z"/></g><g><path fill="#20231e" d="M79.754 27.03h-9.468l-1.094-3.605h-6.776l-1.088 3.605H45.514l-6.197-10.134V27.03H29.99V1.564h9.417V9.39l3.571-7.825h10.063l-6.457 10.797 6.815 10.504 5.604-15.118h-5.61V1.567h6.004v5.118l1.898-5.12 9.017.002 1.892 5.101V1.567h6.006v6.181h-5.606zm-15.746-8.817h3.601l-1.808-6.635-1.793 6.635"/></g><g><path fill="#20231e" d="M145.533 1.564v9.643h-4.914V1.564h-8.975v25.464h8.975v-9.64h4.914v9.64h8.967V1.564h-8.967"/></g><g><path fill="#20231e" d="M178.92 20.845h-12.398V17.39h10.114l-.001-6.182h-10.113V7.746h12.399V1.564h-21.629v25.464l21.629.002v-6.185"/></g><g><path fill="#20231e" d="M20.711 11.478l-8.325 13.716-8.352-13.716H8.08L5.758 7.663H9.57L7.504 3.8h9.735l-2.056 3.862h3.802l-2.329 3.815zm-8.285-2.29l3.958-4.93H8.368zM6.667 8.112l5.703 6.424 5.71-6.424h-3.137l-2.56 4.806-2.572-4.806zM4.96 11.95l7.446 8.59 7.408-8.59h-3.445l-4.007 6.563-3.994-6.563H4.959"/></g><g><path fill="#20231e" d="M104.871 27.029l-9.34.001-.024-.02c-.025-.018-.618-.498-.64-2.611-.015-1.428-.22-3.868-.222-3.894-.007-.093-.165-2.291-2.252-2.291H90.06l-.001 8.815-8.992.001V1.566h14.018c.04-.002 4.039-.232 6.726 2.169 1.5 1.341 2.32 3.24 2.434 5.643.006.123.009.244.009.362 0 3.603-2.642 5.206-3.843 5.637.942.23 3.39 1.178 3.498 4.84.029.965.037 1.757.037 2.347 0 .753-.013 1.168-.013 1.187.003.05.122 2.51.777 3.124zM90.06 7.746v4.43l3.616.001c.183.001.821-.032 1.294-.502.363-.361.546-.896.546-1.592 0-2.118-1.786-2.33-1.853-2.337H90.06"/></g><g><path fill="#20231e" d="M205.096 27.029l-9.34.001-.024-.02c-.026-.019-.617-.499-.64-2.612-.015-1.43-.22-3.868-.223-3.894-.006-.093-.164-2.292-2.25-2.292h-2.334l-.002 8.817h-8.994l.002-25.464h14.019c.04-.003 4.038-.232 6.725 2.169 1.5 1.341 2.321 3.24 2.435 5.643.006.123.009.243.009.362 0 3.604-2.642 5.205-3.843 5.638.942.229 3.39 1.178 3.498 4.84.029.964.037 1.757.037 2.345 0 .754-.013 1.17-.013 1.186.001.054.122 2.512.777 3.126zM190.283 7.746v4.43h3.617c.183.001.82-.032 1.294-.503.362-.36.545-.896.545-1.59 0-2.12-1.781-2.327-1.848-2.335l-3.608-.002"/></g><g><path fill="#20231e" d="M129.976 15.866h-8.088c-.377 3.984-2.217 4.9-3.816 4.92v.001l-.018-.001h-.003c-1.776-.021-3.892-1.145-3.929-6.356-.018-2.764.536-4.792 1.603-5.868.602-.604 1.373-.914 2.293-.924v-.004c.942 0 1.728.313 2.338.927.751.757 1.248 1.989 1.47 3.615 0 .003 8.177 0 8.178 0-.04-3.702-1.293-6.577-3.73-8.547-2.068-1.67-4.938-2.622-8.304-2.754-3.295-.13-6.378 1.021-8.677 3.24-2.586 2.495-4.001 6.127-3.987 10.229.013 4.077 1.282 7.482 3.665 9.85 2.286 2.271 5.455 3.477 9.165 3.486 3.477.01 6.561-1.153 8.686-3.275 2.067-2.062 3.159-4.97 3.156-8.408l-.002-.131"/></g><g/></g></g></svg>