<svg xmlns="http://www.w3.org/2000/svg" width="208" height="27" viewBox="0 0 208 27"><g><g><path d="M185.414 2.719h1.278c4.227 0 7.214 1.574 7.214 6.619s-2.99 5.649-6.693 5.649h-1.796zm-7.035-2.08c-1.534.112-1.796.823-1.534 1.795h1.795c1.534 0 2.059.226 2.059 1.693v17.28c0 2.28-.75 2.653-4.004 2.88-.112.493-.074 1.053 0 1.466h11.782c1.086 0 1.198-.6 1.086-1.68h-1.906c-1.946 0-2.282-.373-2.282-1.453v-5.493h2.507c2.28 0 2.356.12 3.29 1.8.975 1.72 2.32 3.227 3.556 4.307 2.767 2.4 5.048 3.146 8.527 3.146 3.973 0 4.906-.973 4.573-2.28-3.253 0-4.893-.333-9.827-4.306-1.414-1.16-4.227-3.734-4.227-3.734 3.107-1.307 5.054-3.853 5.054-6.987 0-5.12-3.96-8.52-11.147-8.52-5.227 0-7.48 0-9.267.147M151.6.753c-1.645 0-1.795.709-1.645 1.68h1.786c1.68 0 2.014.226 2.014 1.573v17.28c0 2.504-.72 2.766-4.68 2.99a2.469 2.469 0 0 0 0 1.459h20.64c.48-2.32 1.2-4.6 1.946-6.734.36-1.08-.12-1.574-1.12-1.574l-.12.004-1.053 2.317c-1.573 3.366-1.946 3.554-4.72 3.554h-3.213c-2.546 0-2.88-.56-2.88-1.907v-6.584h3.924c.974 0 1.46.337 1.947 3.253.194.088.422.127.644.127.248 0 .488-.04.667-.12a82.11 82.11 0 0 1 0-7.36c.076-1.16-.333-1.414-1.08-1.414h-.45l-.252 1.906c-.117.974-.341 1.347-1.462 1.347h-3.927V2.94h5.987c2.056 0 2.84.6 3.475 2.88l.494 1.68c.093.013.173.013.257.013 1 0 1.374-.626 1.2-1.693-.258-1.6-.48-3.36-.593-5.04zm-24.236 0c-1.57 0-1.794.709-1.57 1.68h1.793c1.573 0 2.058.226 2.058 1.573v17.129c0 2.43-.823 2.917-4.451 3.141-.12.487-.08.971 0 1.459h18.24c.48-2.32 1.16-4.488 1.946-6.733.386-1.115-.107-1.573-1.12-1.573l-.12.004-1.054 2.318c-1.574 3.367-1.947 3.555-4.72 3.555h-2.4c-1.054 0-1.694-.337-1.694-1.573V5.202c0-2.431.746-2.768 4.672-2.993.106-.374.106-1.12 0-1.458zm-17.877 0l-8.64 17.989L91.457.751h-7.553c-1.56 0-1.786.813-1.56 1.68 3.707.107 3.934.52 3.814 1.72l-1.534 17.573c-.106 1.574-.453 2.32-4.56 2.547a3.36 3.36 0 0 0 0 1.453H92.33c1.053 0 1.2-.6.933-1.68H91.25c-3.96 0-3.96-.374-3.853-1.84l1.2-16.8L98.93 25.818c.853 0 1.16-.227 1.84-1.574l8.983-18.853 1.68 16.307c.186 1.826-.336 2.24-3.476 2.426l-2.022.106c-.146.48-.146.962 0 1.453h13.2c1.05 0 1.16-.6 1.05-1.68-2.88-.374-3.48-.48-3.592-1.68l-1.8-18.253c-.11-1.08.116-1.68 3.586-1.907a2.29 2.29 0 0 0 0-1.454zm-44.92 0c-1.571 0-1.795.709-1.571 1.68h1.796c1.72 0 2.056.226 2.056 1.573v17.877c0 1.533-.72 1.906-3.706 2.393-.16.487-.16 1.086 0 1.459h11.36c1.12 0 1.226-.6.973-1.682h-2.013c-1.574 0-1.947-.262-1.947-1.57V4.715c0-1.571.48-2.28 3.733-2.507.107-.373.107-1.12 0-1.457zM44.183 5.425l4.078 9.728h-7.967zM45.83.265c-1.76 0-2.244.6-3.48 3.48l-7.404 17.541c-1.011 2.389-1.347 2.613-4.227 2.989-.112.486-.112 1.085 0 1.458h10.697c.934 0 1.196-.6.934-1.683h-3.214c-2.058 0-2.058-.56-1.2-2.768l1.534-4.08h9.65l2.356 5.649c.414.973 0 1.309-4.076 1.421-.113.493-.113 1.093 0 1.466h12.118c.973 0 1.2-.6.973-1.68h-.853c-1.907 0-2.32-.334-2.734-1.307l-8.64-19.707c-.6-1.307-.853-1.934-.973-2.76zM9.474 21.023V2.21h3.853c7.182 0 10.92 4.186 10.92 11.37 0 8.054-4.076 10.107-10.47 10.107-3.481 0-4.302-.373-4.302-2.653M6.22.003C.834.003.687.339.949 1.947h1.794c1.683 0 2.058.227 2.058 1.683v17.653c0 2.506-.711 2.769-4.712 2.993-.12.486-.12 1.085 0 1.458h14.053c10.693 0 15.106-5.163 15.106-12.867C29.248 4.864 24.568 0 13.795 0z"/></g></g></svg>