<svg xmlns="http://www.w3.org/2000/svg" width="189" height="43" viewBox="0 0 189 43"><g><g><g><g><g><path d="M74.858 29.451h-5.057v-5.45h4.926c2.485 0 3.663 1.09 3.663 2.704 0 2.005-1.483 2.746-3.532 2.746zm-5.1-16.175h5.057c1.57 0 2.615 1.047 2.615 2.616 0 1.221-.959 2.529-2.746 2.529h-4.97v-5.145zm10.986 7.543s3.837-1.308 3.837-5.668c0-5.1-3.62-7.63-8.59-7.63H62.957V35.25h14.17c4.36 0 8.632-3.052 8.632-7.717 0-5.537-5.014-6.67-5.014-6.714z"/></g><g><path d="M100.755 29.233c-3.923 0-5.885-3.531-5.885-7.89 0-4.36 1.962-7.849 5.885-7.849 3.924 0 5.93 3.532 5.93 7.848 0 4.36-2.006 7.891-5.93 7.891zm0-22.409c-8.022 0-12.73 6.409-12.73 14.518 0 8.153 4.708 14.518 12.73 14.518 8.066 0 12.731-6.365 12.731-14.518 0-8.11-4.665-14.518-12.73-14.518z"/></g><g><path d="M128.266 18.377l-.96-.218c-2.354-.48-4.228-1.09-4.228-2.79 0-1.83 1.787-2.572 3.357-2.572 2.31 0 4.36 1.133 5.667 2.572l4.317-4.272c-1.962-2.224-5.145-4.36-10.115-4.36-5.842 0-10.246 3.27-10.246 8.72 0 4.97 3.575 7.411 7.935 8.327l.96.218c3.618.74 4.97 1.308 4.97 3.051 0 1.657-1.483 2.747-3.75 2.747-2.703 0-5.145-1.177-7.02-3.575l-4.403 4.36c2.442 2.92 5.537 5.188 11.51 5.188 5.188 0 10.725-2.965 10.725-9.025.044-6.321-4.752-7.542-8.72-8.37z"/></g><g><path d="M152.463 29.233c-3.052 0-6.235-2.528-6.235-8.065 0-4.927 2.965-7.674 6.06-7.674 2.442 0 3.88 1.134 5.014 3.096l5.58-3.706c-2.79-4.229-6.103-6.016-10.681-6.016-8.37 0-12.905 6.496-12.905 14.343 0 8.24 5.014 14.693 12.818 14.693 5.493 0 8.11-1.918 10.943-6.017l-5.624-3.793c-1.134 1.831-2.355 3.14-4.97 3.14z"/></g><g><path d="M181.499 7.478V17.68h-8.415V7.478h-7.28v27.728h7.28V24.263h8.415v10.943h7.28V7.478z"/></g></g></g><g><g><g><path d="M21.015 40.438c-10.508 0-19.053-8.545-19.053-19.052S10.508 2.333 21.015 2.333c10.507 0 19.052 8.546 19.052 19.053 0 10.507-8.545 19.052-19.052 19.052zm0-40.067C9.418.371 0 9.79 0 21.386 0 32.983 9.418 42.4 21.015 42.4c11.597 0 21.014-9.417 21.014-21.014S32.612.37 21.015.37z"/></g><g><path d="M30.214 11.097a13.731 13.731 0 0 1 4.578 10.245c0 4.011-1.7 7.717-4.578 10.29zM28.252 25.31H13.82v-7.892h14.43zm-16.437 6.365c-2.92-2.572-4.62-6.278-4.62-10.29 0-4.01 1.7-7.716 4.62-10.288zM29.691 8.263h-1.44v7.193h-14.43V8.263h-1.482c-4.23 2.834-7.063 7.63-7.063 13.123 0 5.493 2.834 10.289 7.063 13.123h1.482v-7.194h14.43v7.194h1.44c4.272-2.834 7.063-7.63 7.063-13.123 0-5.494-2.79-10.29-7.063-13.123z"/></g></g></g></g></g></svg>