<svg xmlns="http://www.w3.org/2000/svg" width="123" height="45" viewBox="0 0 123 45"><g><g><g><path d="M68.32.825h2.475c.92-.042 1.87.71 1.77 1.681-.172 1.249-.524 2.466-.733 3.709.78.004 1.56.002 2.341 0 .259-1.247.53-2.492.776-3.742.087-.43.21-.886.555-1.188.374-.378.934-.418 1.437-.46h2.705c.87.045 1.714.776 1.613 1.693-.176 1.244-.532 2.456-.726 3.698.566.013 1.154-.066 1.705.105.45.152.7.578.94.957 2.113-1.517 4.714-2.374 7.324-2.276 2.59.053 5.196 1.187 6.821 3.237 1.222 1.49 1.821 3.398 1.945 5.301 6.153.006 12.307-.005 18.462.005a4.521 4.521 0 0 1 3.503 1.66c.73.854 1.055 1.982 1.078 3.092v21.739c-.073 1.135-.478 2.272-1.279 3.098-.804.883-1.971 1.384-3.157 1.444H4.41C2.6 44.511.903 43.294.302 41.581c-.375-.891-.293-1.871-.294-2.813 0-6.883.001-13.767-.002-20.65.005-1.471.754-2.932 1.974-3.763a4.568 4.568 0 0 1 2.672-.812c6.863-.003 13.726-.002 20.589 0 .765-3.679 1.498-7.364 2.256-11.044.12-.703.757-1.287 1.484-1.265a319.72 319.72 0 0 1 4 0c.603-.021 1.18.357 1.407.915C35.91 5.84 37.346 9.57 38.897 13.25c.718-3.551 1.424-7.105 2.137-10.657.101-.703.68-1.339 1.418-1.352 1.326-.013 2.658-.037 3.984.014.868.08 1.473 1.029 1.259 1.858-.351 1.824-.751 3.639-1.098 5.464 2.525-2.864 6.616-4.141 10.335-3.376 2.243.491 4.205 1.988 5.354 3.965.223-.794.152-1.71.651-2.402.614-.767 1.686-.509 2.538-.545.281-1.29.547-2.582.813-3.874.085-.452.273-.915.67-1.181.388-.296.898-.288 1.362-.339z"/></g><g><path fill="#efefef" d="M.935 17.93c.031-1.88 1.73-3.504 3.6-3.508 6.847-.022 13.696-.003 20.543-.009L23.23 23.5c-.322 1.075.725 2.135 1.802 1.926 20.753.102 41.506.202 62.26.29 2.87.04 5.704-1.1 7.854-2.982 2.412-2.081 3.92-5.145 4.133-8.322 5.797.002 11.594.002 17.39 0 .836-.005 1.71-.041 2.493.306 1.332.548 2.268 1.941 2.232 3.388-.004 7.346.006 14.693-.005 22.04-.01 1.9-1.746 3.547-3.637 3.52-37.69.006-75.381 0-113.072.002-1.933.08-3.73-1.588-3.748-3.53C.93 32.734.927 25.331.935 17.928z"/></g><g><path d="M91.062 34.245c.307.011.61.15.785.411.325.484.365 1.093.366 1.66-.02.503-.082 1.056-.424 1.453-.431.506-1.343.422-1.66-.167-.349-.617-.342-1.369-.25-2.052.065-.448.22-.962.649-1.19.162-.084.35-.122.534-.115zm-.045-1.969c-.37.003-.74.045-1.094.11-.926.18-1.823.673-2.334 1.486-.659 1.034-.72 2.348-.464 3.518a3.333 3.333 0 0 0 2.194 2.412c1.279.416 2.755.383 3.962-.244.966-.5 1.59-1.52 1.717-2.586.162-1.25-.007-2.676-.945-3.602-.798-.794-1.926-1.1-3.036-1.094zm21.672-1.915c-.577.533-.39 1.394-.42 2.093-.349.024-.725-.039-1.045.124-.435.247-.417.86-.256 1.268.304.402.854.333 1.299.357.01 1.166-.009 2.331.006 3.497-.004.77.281 1.62.984 2.02.859.468 1.93.434 2.844.154.663-.195.836-1.107.43-1.612-.381-.372-.964-.306-1.451-.377-.101-1.228-.018-2.462-.047-3.693.477-.021 1.013.087 1.44-.182.362-.34.364-1.013.018-1.364-.427-.287-.975-.159-1.457-.181-.027-.697.152-1.543-.403-2.085-.536-.426-1.394-.42-1.942-.019zm-9.277 2.914c-.067 1.622-.002 3.25-.03 4.874.01.435-.047.911.188 1.303.574.976 2.42.792 2.61-.397.112-1.113-.026-2.238.067-3.353.032-.415.22-.866.627-1.04.561-.257 1.32.09 1.385.734.127 1.234-.068 2.487.098 3.718.255 1.208 2.237 1.302 2.675.183.174-.515.126-1.069.134-1.603-.018-.917.025-1.836-.02-2.753-.043-.816-.328-1.701-1.029-2.184-1.288-.857-3.357-.599-4.08.88-.106-.409-.162-.896-.544-1.15-.711-.471-1.995-.174-2.081.788zm-7.857-.615c-.396.4-.375 1-.37 1.522.023 1.07-.004 2.14.012 3.21.011.832.326 1.718 1.033 2.209 1.291.849 3.35.583 4.074-.892.1.412.157.91.545 1.164.446.286 1.044.246 1.514.037.47-.233.608-.798.6-1.281.009-1.486-.005-2.97.006-4.455-.012-.391.016-.802-.144-1.169-.485-1.091-2.469-.95-2.67.283-.151 1.177.033 2.372-.095 3.55-.063.49-.474.963-1 .926-.497.034-.945-.37-.992-.858-.11-1.21.054-2.432-.078-3.638-.2-1.07-1.723-1.294-2.435-.608zm-12.972-.268c-1.034.2-2.013.837-2.477 1.803-.518 1.077-.53 2.356-.184 3.487.306 1.057 1.217 1.87 2.26 2.17 1.049.3 2.197.304 3.233-.049.704-.248 1.38-.762 1.6-1.5.2-.712-.499-1.489-1.233-1.305-.69.206-1.117.945-1.865 1.02-.617.074-1.146-.42-1.271-.998-.143-.688-.19-1.468.172-2.1.308-.55 1.05-.703 1.612-.494.47.201.788.636 1.238.873.526.235 1.186-.122 1.31-.678.202-.7-.29-1.368-.858-1.722-1.042-.65-2.354-.733-3.537-.507zm-8.1.041c-.723.162-1.462.52-1.842 1.186-.442.804-.38 1.98.392 2.567.914.732 2.13.79 3.212 1.114.305.085.632.336.542.695-.233.472-.835.48-1.284.409-.687-.096-1.161-.645-1.748-.953-.64-.345-1.558.26-1.386 1.002.136.912 1.126 1.296 1.918 1.469 1.437.247 3.035.259 4.34-.474 1.13-.614 1.519-2.362.536-3.274-1.029-.928-2.5-.892-3.737-1.34-.426-.114-.375-.741.025-.855.807-.25 1.596.159 2.25.596.496.351 1.32.36 1.63-.237.332-.623-.155-1.314-.733-1.563-1.278-.575-2.757-.602-4.115-.342zm-5.04-1.798c.104.741.904 1.294 1.633 1.09.672-.146 1.12-.856 1.02-1.527-.063-.814-.963-1.417-1.74-1.142-.646.202-1.05.92-.912 1.579zm-.103 3.082c-.006 1.582.006 3.166-.005 4.748-.02.496.095 1.059.53 1.358.499.322 1.182.331 1.704.06.448-.243.632-.775.609-1.26-.001-1.744.02-3.49-.017-5.23-.078-.992-1.307-1.361-2.104-.975-.505.209-.729.784-.717 1.3zm-26.777.27c.392-.017.791.12 1.055.412.245.261.26.632.334.965-.9.002-1.801.005-2.701-.006.085-.291.118-.612.302-.862.231-.323.618-.491 1.01-.509zm.045-1.71a6.184 6.184 0 0 0-1.409.147c-1.114.242-2.122 1.028-2.495 2.123-.413 1.211-.373 2.617.237 3.756.568 1.053 1.745 1.626 2.901 1.73.994.081 2.013.03 2.972-.257.568-.186 1.213-.52 1.35-1.158.148-.628-.456-1.341-1.112-1.15-.89.22-1.615 1.09-2.605.855-.722-.111-1.099-.825-1.184-1.486 1.363-.01 2.729.011 4.091-.007.47.007 1.072-.146 1.19-.675.242-1.057-.286-2.162-1.061-2.869-.793-.696-1.83-.995-2.875-1.01zm4.712.192c-.432.246-.547.778-.538 1.238-.009 1.482.006 2.964-.006 4.446.008.436-.03.907.199 1.3.573.979 2.422.787 2.61-.4.115-1.116-.023-2.244.066-3.362.033-.345.156-.708.445-.923.509-.387 1.385-.15 1.539.5.152.85.042 1.722.071 2.581.024.56-.101 1.19.24 1.683.443.624 1.39.68 2.022.329.483-.279.601-.88.594-1.394 0-1.124-.005-2.248-.008-3.373-.007-.836-.26-1.745-.948-2.277-1.28-.93-3.423-.69-4.165.817-.103-.444-.193-.975-.636-1.212-.46-.221-1.036-.188-1.485.047zm-15.782 5.992c-.012.523.086 1.153.593 1.43.586.287 1.426.277 1.882-.244.381-.468.276-1.113.291-1.672.204-.206.412-.408.618-.612.444.745.807 1.543 1.332 2.236.621.821 2.125.534 2.425-.445.176-.555-.097-1.114-.393-1.571-.478-.726-.98-1.435-1.459-2.16.557-.594 1.427-1.108 1.44-2.012-.029-.992-1.416-1.526-2.093-.795-.671.725-1.237 1.542-1.868 2.303-.002-1.268-.001-2.536.003-3.804-.002-.444-.025-.945-.364-1.276-.751-.705-2.372-.359-2.382.813-.069 2.602.001 5.206-.025 7.809zm-5.039-6.007c-.436.25-.61.78-.601 1.26-.002 1.528.003 3.057 0 4.585.008.332-.003.677.11.995.42 1.087 2.32 1.045 2.652-.091.23-1.054-.058-2.155.162-3.21.294-.888 1.383-.822 2.097-1.14.613-.357.613-1.216.455-1.825-.18-.704-1.096-.955-1.679-.587-.668.42-.947 1.202-1.23 1.898-.033-.543.054-1.161-.299-1.622-.378-.502-1.145-.558-1.667-.263zm29.254 4.729c.863.026 1.73.033 2.594-.003 1.327-.167 1.246-2.625-.13-2.636-.848-.007-1.7-.041-2.547.02-1.237.224-1.196 2.503.083 2.619zm7.16-4.951c.774.018 1.652-.072 2.29.457.607.509.665 1.362.683 2.096-.02.73-.074 1.589-.682 2.09-.638.525-1.525.437-2.297.457.002-1.7.006-3.4.007-5.1zm-1.015-2.567c-.406 0-.805.026-1.19.161-.627.243-.885.956-.882 1.582-.01 1.939.001 3.883-.006 5.822.01.69-.09 1.452.322 2.058.316.46.912.596 1.44.598.916.008 1.83-.003 2.747 0 1.263.005 2.593-.39 3.46-1.35 1.079-1.164 1.354-2.843 1.242-4.375-.09-1.493-.757-3.039-2.084-3.827-1.144-.713-2.537-.687-3.834-.662-.4.019-.81-.007-1.215-.007zm-39.05 6.973zm-.045 1.01c-.262.732-1.367 1.063-1.956.533-.358-.292-.224-.939.22-1.067.59-.177 1.224-.185 1.78-.476-.01.336.015.676-.044 1.01zm-1.042-5.365a10.13 10.13 0 0 0-.875.052c-.81.11-1.687.331-2.251.965-.352.392-.435 1.081-.052 1.479.416.361 1.058.253 1.473-.052.522-.361 1.067-.792 1.743-.74.459-.008 1.122.22 1.049.792-.034.455-.567.53-.926.592-1.17.125-2.444.136-3.448.836-.922.637-.955 2.028-.392 2.914.577.833 1.702 1.001 2.643.939.844-.047 1.68-.413 2.187-1.107.16 1.142 1.66 1.438 2.47.798.293-.232.339-.631.296-.978-.153-1.485-.037-2.981-.083-4.47-.004-.74-.6-1.32-1.248-1.582-.817-.338-1.704-.452-2.586-.438zM7.015 29.767c-.54.358-.683 1.048-.655 1.656.022 2.504-.03 5.012.025 7.515.068 1.228 1.909 1.527 2.563.603.197-.267.243-.607.248-.93.018-1.658-.033-3.317.024-4.973.45 1.812.926 3.617 1.394 5.425.096.366.243.803.647.926.433.113.912.131 1.335-.03.417-.173.523-.653.631-1.043.437-1.752.921-3.492 1.337-5.25.072 1.649.005 3.3.034 4.949.005.438.126.922.504 1.189.465.319 1.1.346 1.615.135.505-.219.75-.788.729-1.315.007-2.35-.005-4.7.005-7.05.015-.598-.048-1.28-.534-1.697-.629-.56-1.544-.364-2.311-.37-.638-.014-1.171.473-1.313 1.078-.5 1.766-.899 3.56-1.407 5.325-.452-1.77-.893-3.54-1.372-5.302-.14-.6-.644-1.1-1.282-1.099-.736-.003-1.56-.161-2.217.258z"/></g><g><path fill="#efefef" d="M88.874 9.642c-2.997.413-5.536 3.016-5.879 6.02-.198 1.626.42 3.37 1.705 4.413 1.032.85 2.426 1.188 3.743 1.03 3.185-.387 5.916-3.278 6.008-6.504.067-1.446-.515-2.93-1.628-3.872-.932-.818-2.192-1.187-3.422-1.138a5.435 5.435 0 0 0-.527.051zm1.061-3.422c1.763-.03 3.553.422 4.972 1.492 1.512 1.114 2.492 2.875 2.734 4.728.335 2.527-.455 5.139-1.975 7.165-1.68 2.262-4.28 3.848-7.081 4.214-2.025.256-4.19-.091-5.88-1.287-1.497-1.024-2.52-2.674-2.849-4.45-.471-2.514.232-5.164 1.673-7.25 1.731-2.529 4.591-4.283 7.654-4.573.25-.024.5-.034.752-.039zm-22.1-4.097c1.072-.002 2.145-.002 3.218 0-.377 1.773-.742 3.548-1.118 5.322 1.825-.001 3.65-.003 5.477 0 .38-1.773.738-3.552 1.12-5.326 1.071.006 2.144 0 3.216.004-.385 1.77-.74 3.549-1.122 5.32h3.058c-.178.994-.365 1.986-.528 2.982-1.021.015-2.042.001-3.063.01-.802 4.302-1.611 8.603-2.42 12.904-1.07.001-2.14.002-3.21 0 .796-4.304 1.623-8.602 2.411-12.907-1.821-.003-3.643.003-5.465-.002-.823 4.3-1.609 8.61-2.432 12.911-1.07-.002-2.14 0-3.208 0 .795-4.304 1.632-8.6 2.406-12.908-.867-.004-1.734 0-2.6-.002.175-.997.351-1.995.535-2.99.87.005 1.74 0 2.61.005.378-1.773.741-3.55 1.115-5.323zM54.822 9.359c-.88-.015-1.772.249-2.528.695-1.528.894-2.634 2.391-3.254 4.033 3.355.009 6.704.003 10.06.006-.029-1.81-1.055-3.63-2.734-4.387a3.803 3.803 0 0 0-1.544-.347zm1.557-3.017c2.37.423 4.33 2.256 5.171 4.477.686 1.814.875 3.877.29 5.744-4.169-.001-8.337.006-12.505 0-.312.003-.621.02-.932.039-.132 1.17.004 2.505.932 3.338 1.253 1.108 3.071 1.224 4.657 1.03 1.522-.186 2.723-1.248 3.673-2.374 1.063-.002 2.127-.008 3.19 0-1.16 1.999-2.873 3.74-5.036 4.624-1.992.829-4.279.882-6.336.264-1.795-.538-3.349-1.874-4.045-3.628-.879-2.115-.626-4.51.07-6.638.758-2.32 2.271-4.447 4.393-5.699 1.447-.857 3.124-1.295 4.805-1.305a9.88 9.88 0 0 1 1.673.128zM28.997 2.461c1.332-.007 2.664-.003 3.997-.003 2.139 5.273 4.243 10.56 6.394 15.828 1.054-5.277 2.11-10.553 3.176-15.828 1.215 0 2.431-.002 3.647 0-1.438 7.046-2.865 14.093-4.302 21.138-1.331-.004-2.663-.001-3.994-.001-2.139-5.238-4.27-10.48-6.404-15.72-1.085 5.231-2.106 10.476-3.155 15.715-1.217.008-2.434.005-3.65 0 1.423-7.044 2.866-14.085 4.291-21.13z"/></g></g></g></svg>